<svg xmlns="http://www.w3.org/2000/svg" viewBox="0 0 300 300">
<defs>
<style><![CDATA[.pref{fill:rgba(255,250,240,.36);stroke:rgba(66,45,32,.42);stroke-width:2.1;stroke-linejoin:round}.active{fill:rgba(244,166,78,.42);stroke:rgba(255,245,206,1);stroke-width:4.1}.active-glow{filter:url(#glow)}text{fill:rgba(66,45,32,.9);font-family:serif;font-size:16px;font-weight:600;text-anchor:middle;dominant-baseline:middle}]]></style>
<filter id="glow" x="-35%" y="-35%" width="170%" height="170%"><feGaussianBlur stdDeviation="5.5" result="blur"/><feMerge><feMergeNode in="blur"/><feMergeNode in="SourceGraphic"/></feMerge></filter>
</defs>
<path class="pref" d="M 170.48 26.95 L 171.02 26.66 L 171.69 26.29 L 172.45 25.77 L 173.64 25.88 L 173.98 25.81 L 173.95 24.91 L 173.72 24.57 L 174.17 24.37 L 174.67 24.32 L 175.13 23.71 L 175.34 23.47 L 175.57 22.81 L 176.04 22.66 L 176.26 22.49 L 176.52 22.64 L 176.60 22.61 L 176.73 22.36 L 177.37 21.44 L 177.73 20.91 L 178.25 20.60 L 178.67 20.50 L 178.62 20.02 L 178.93 19.84 L 179.78 19.52 L 180.35 18.81 L 180.79 19.00 L 181.19 18.96 L 181.76 19.42 L 182.02 19.13 L 182.42 19.21 L 183.31 18.94 L 183.51 19.24 L 183.54 19.72 L 183.94 19.91 L 184.62 20.97 L 184.75 21.58 L 185.01 21.22 L 185.43 21.32 L 185.48 20.51 L 185.99 20.48 L 186.41 20.02 L 187.24 19.92 L 187.89 19.28 L 188.59 18.36 L 188.63 18.32 L 188.75 18.30 L 189.59 19.30 L 190.21 18.83 L 190.57 18.47 L 191.73 18.00 L 192.16 18.20 L 192.51 18.33 L 193.68 18.62 L 194.00 18.29 L 194.58 18.12 L 195.24 18.37 L 195.39 18.53 L 195.35 19.41 L 195.04 19.61 L 195.00 20.11 L 194.98 20.26 L 194.52 20.55 L 194.24 20.84 L 194.52 21.21 L 195.06 21.86 L 195.68 21.84 L 196.29 21.52 L 196.78 21.34 L 197.09 21.30 L 197.52 21.03 L 198.12 21.02 L 198.48 21.04 L 198.72 21.01 L 198.80 20.90 L 199.41 20.66 L 199.36 19.93 L 199.78 19.43 L 200.67 19.11 L 201.25 19.18 L 201.52 18.99 L 201.95 18.86 L 202.32 18.65 L 202.44 18.53 L 202.90 19.00 L 202.89 19.57 L 203.02 20.81 L 203.94 21.74 L 204.51 21.86 L 205.09 21.85 L 205.60 22.07 L 205.98 22.24 L 206.08 22.29 L 206.74 22.27 L 206.88 22.36 L 207.53 22.89 L 207.78 22.97 L 208.17 22.68 L 209.26 23.07 L 210.13 22.42 L 210.16 22.36 L 210.59 21.83 L 212.17 22.00 L 212.71 21.75 L 213.52 21.88 L 214.13 22.02 L 214.16 22.36 L 214.67 23.37 L 215.10 23.70 L 215.69 23.93 L 216.08 24.18 L 216.85 24.98 L 217.56 25.20 L 218.85 25.42 L 219.92 25.24 L 220.22 24.95 L 220.75 25.09 L 221.42 25.25 L 221.39 26.80 L 221.52 27.01 L 222.14 27.26 L 222.53 27.12 L 223.59 27.47 L 224.40 27.64 L 224.74 28.09 L 225.24 28.84 L 226.10 29.80 L 227.02 29.91 L 227.04 30.38 L 227.21 31.01 L 227.52 31.31 L 227.53 31.83 L 227.54 32.27 L 227.37 33.11 L 227.73 33.46 L 227.14 34.27 L 227.14 34.97 L 225.67 35.80 L 225.18 36.35 L 224.74 36.91 L 224.25 37.28 L 224.06 37.28 L 223.67 38.10 L 223.27 38.41 L 223.19 38.82 L 222.30 39.38 L 222.04 40.02 L 221.63 40.70 L 221.37 40.93 L 221.04 40.91 L 221.04 41.51 L 220.47 41.67 L 220.12 41.60 L 220.16 41.85 L 220.26 42.27 L 220.13 42.59 L 220.35 43.22 L 220.79 43.98 L 221.83 44.32 L 222.15 44.40 L 221.77 45.06 L 221.83 45.50 L 222.13 46.24 L 221.92 46.43 L 221.64 47.04 L 220.64 47.39 L 219.52 48.00 L 219.44 48.65 L 218.72 48.93 L 218.31 49.27 L 218.27 49.28 L 218.25 49.59 L 218.57 50.06 L 218.79 50.33 L 218.38 51.47 L 217.95 51.66 L 217.93 52.21 L 218.20 52.48 L 218.67 52.84 L 218.94 53.07 L 219.27 53.41 L 219.56 53.56 L 220.16 54.38 L 220.39 54.45 L 220.64 54.60 L 221.05 54.65 L 222.13 55.19 L 222.40 55.50 L 223.78 55.30 L 223.96 55.45 L 223.69 56.05 L 223.88 56.59 L 223.97 56.87 L 223.67 57.20 L 223.28 57.52 L 223.05 58.13 L 222.41 58.73 L 222.56 60.17 L 222.58 60.30 L 222.12 61.50 L 221.50 62.25 L 221.12 62.48 L 220.30 63.12 L 220.16 63.19 L 219.95 63.20 L 219.79 63.20 L 219.66 63.20 L 218.73 63.81 L 217.77 64.13 L 217.17 64.47 L 217.28 65.29 L 217.04 65.87 L 216.81 66.10 L 216.12 66.51 L 215.33 68.22 L 215.13 68.39 L 214.71 68.56 L 213.54 68.51 L 213.10 68.94 L 212.71 69.70 L 212.18 70.20 L 211.97 70.50 L 211.71 70.74 L 211.38 71.07 L 211.47 71.51 L 211.19 71.93 L 211.13 72.59 L 210.70 72.89 L 210.71 72.99 L 209.63 73.20 L 209.12 73.42 L 208.98 73.43 L 207.87 72.97 L 207.15 72.41 L 206.89 71.93 L 206.48 71.92 L 205.62 72.07 L 205.05 72.06 L 203.74 72.61 L 201.48 73.19 L 200.81 73.89 L 200.67 73.99 L 199.98 74.51 L 200.30 74.93 L 200.22 76.13 L 199.76 77.33 L 199.09 77.96 L 198.94 77.97 L 197.17 77.81 L 196.75 78.43 L 196.76 78.53 L 196.49 79.46 L 196.36 79.57 L 196.47 79.96 L 196.21 80.54 L 196.22 80.87 L 196.86 81.27 L 197.07 81.70 L 197.38 82.22 L 198.31 82.04 L 198.94 81.92 L 199.55 82.43 L 200.23 82.13 L 200.62 82.08 L 200.67 82.04 L 201.55 81.92 L 202.20 82.14 L 202.81 82.33 L 203.05 83.45 L 202.52 83.96 L 203.23 84.37 L 204.70 84.28 L 205.05 84.48 L 205.46 84.55 L 205.67 84.48 L 206.11 84.82 L 206.67 84.87 L 206.78 85.37 L 207.26 86.04 L 208.20 85.95 L 208.44 85.57 L 209.06 85.77 L 209.60 86.34 L 209.61 86.55 L 209.87 87.22 L 209.76 87.57 L 210.61 88.57 L 210.91 88.87 L 211.14 89.14 L 211.62 89.41 L 211.80 90.08 L 211.60 90.91 L 211.82 91.18 L 212.19 91.41 L 212.39 91.74 L 212.71 91.81 L 212.79 92.19 L 212.84 92.90 L 213.72 93.38 L 213.89 93.35 L 214.45 93.84 L 215.03 93.96 L 215.41 94.43 L 215.78 94.57 L 216.39 95.06 L 216.73 95.65 L 217.35 96.49 L 216.81 96.79 L 216.83 97.41 L 216.46 97.66 L 216.30 97.66 L 216.12 97.66 L 215.53 98.07 L 215.60 98.58 L 215.27 98.89 L 215.06 99.45 L 214.83 99.43 L 214.58 99.75 L 214.41 100.61 L 214.64 100.82 L 214.87 101.03 L 215.09 101.38 L 216.08 102.08 L 216.03 102.45 L 216.56 102.60 L 216.63 102.80 L 217.23 102.60 L 218.06 102.56 L 218.16 102.60 L 219.39 102.71 L 219.60 102.74 L 219.85 102.89 L 219.64 103.68 L 219.27 104.25 L 219.25 104.59 L 219.94 105.04 L 219.90 105.78 L 220.03 106.05 L 220.16 106.45 L 220.19 106.65 L 220.40 106.70 L 220.89 107.20 L 221.51 107.35 L 222.16 107.67 L 222.54 107.69 L 222.76 107.89 L 222.93 107.93 L 223.40 107.73 L 224.31 108.40 L 224.65 108.91 L 224.74 108.95 L 225.28 109.78 L 225.70 110.06 L 225.27 110.62 L 225.28 110.80 L 224.98 110.95 L 225.24 112.43 L 225.47 112.56 L 225.61 113.21 L 225.67 113.83 L 225.30 114.04 L 225.12 114.04 L 224.77 114.08 L 224.74 114.00 L 224.38 114.04 L 224.03 114.49 L 223.38 114.96 L 222.00 116.07 L 222.78 116.77 L 223.48 116.98 L 224.33 118.01 L 224.22 118.44 L 224.38 118.65 L 224.54 119.06 L 224.74 119.42 L 225.71 119.56 L 225.70 119.98 L 225.99 120.39 L 225.87 120.65 L 224.74 121.16 L 224.23 121.34 L 223.99 121.30 L 223.87 121.35 L 223.00 121.17 L 222.82 121.17 L 222.68 121.17 L 222.09 121.07 L 221.70 121.17 L 220.30 120.53 L 220.24 120.56 L 220.56 121.52 L 220.98 121.52 L 221.33 121.66 L 221.87 122.13 L 222.48 122.67 L 222.53 123.95 L 222.83 124.62 L 222.83 124.89 L 222.66 125.32 L 222.77 125.72 L 222.79 126.22 L 223.03 126.67 L 222.99 126.86 L 222.73 127.22 L 222.30 127.22 L 222.05 127.21 L 221.72 127.30 L 221.57 127.66 L 221.10 128.06 L 220.88 128.42 L 220.46 128.39 L 220.23 128.56 L 219.89 128.42 L 219.49 128.81 L 219.56 128.93 L 219.20 128.92 L 219.21 129.16 L 218.98 129.15 L 218.73 129.26 L 218.49 129.22 L 218.65 130.16 L 218.46 130.65 L 218.97 131.22 L 218.94 131.74 L 218.15 131.73 L 217.78 131.81 L 217.33 132.00 L 216.84 131.96 L 216.29 131.97 L 215.89 131.82 L 215.52 131.70 L 214.90 131.81 L 215.01 132.70 L 214.75 132.62 L 214.41 132.74 L 214.32 133.05 L 213.71 133.41 L 213.54 133.71 L 212.71 133.63 L 212.71 133.86 L 212.71 134.12 L 212.36 134.12 L 211.43 134.33 L 211.41 134.47 L 210.70 134.69 L 210.12 135.40 L 209.80 135.34 L 209.40 135.79 L 209.17 135.96 L 208.60 135.91 L 208.23 136.43 L 207.45 136.57 L 207.33 136.87 L 207.15 136.93 L 206.90 137.33 L 206.25 137.62 L 205.99 137.36 L 205.02 135.95 L 204.24 136.45 L 204.10 136.27 L 203.81 136.13 L 203.45 135.81 L 203.17 135.87 L 202.35 135.96 L 201.95 135.60 L 201.74 135.32 L 201.83 135.19 L 202.03 134.69 L 201.77 134.03 L 201.31 134.17 L 200.67 133.74 L 200.41 133.95 L 199.94 133.96 L 198.73 134.24 L 198.02 134.25 L 198.09 133.90 L 197.84 133.93 L 197.62 133.65 L 198.13 133.13 L 198.11 132.83 L 197.49 132.54 L 197.40 132.58 L 197.12 132.49 L 196.86 132.39 L 196.77 132.35 L 196.37 132.06 L 196.10 131.95 L 194.84 131.37 L 194.51 131.05 L 194.20 131.15 L 193.86 131.19 L 193.44 131.21 L 193.17 131.22 L 192.12 131.32 L 191.76 131.32 L 191.41 131.10 L 191.25 131.35 L 190.87 131.50 L 190.16 131.62 L 189.92 132.11 L 189.97 132.57 L 189.77 132.62 L 189.65 132.82 L 189.38 132.82 L 189.08 133.10 L 188.63 133.24 L 188.42 133.18 L 188.18 133.59 L 187.70 133.53 L 187.26 133.96 L 186.85 134.06 L 186.29 134.45 L 186.16 134.09 L 186.04 134.08 L 185.42 134.05 L 185.05 134.20 L 184.81 134.69 L 184.73 134.69 L 184.49 134.50 L 184.36 134.69 L 184.20 134.82 L 183.85 134.69 L 183.56 134.66 L 183.17 134.69 L 183.15 134.73 L 182.76 134.69 L 182.55 134.56 L 181.99 134.13 L 181.75 133.68 L 181.54 133.58 L 181.85 133.29 L 181.83 133.04 L 181.58 132.75 L 181.37 132.59 L 180.78 131.87 L 180.35 131.86 L 179.70 132.13 L 179.35 132.00 L 178.86 132.13 L 177.53 130.81 L 177.35 130.82 L 176.60 130.58 L 176.41 130.50 L 176.03 130.41 L 174.71 130.03 L 174.37 130.40 L 174.36 130.78 L 174.11 131.08 L 173.78 130.92 L 172.74 130.94 L 172.60 130.66 L 172.64 129.80 L 172.56 129.56 L 172.23 129.59 L 171.38 129.37 L 171.27 129.22 L 170.94 128.40 L 171.82 127.72 L 171.43 126.80 L 170.98 126.67 L 170.98 126.62 L 170.68 126.45 L 170.13 126.67 L 169.69 126.85 L 169.42 126.67 L 169.32 126.37 L 169.29 125.26 L 169.59 124.60 L 169.43 123.93 L 169.24 123.75 L 168.30 123.65 L 167.75 123.38 L 167.58 122.91 L 167.39 122.95 L 166.58 122.81 L 166.32 122.36 L 165.22 122.38 L 164.89 122.06 L 164.75 121.48 L 164.56 121.43 L 164.49 121.32 L 164.03 121.21 L 163.78 120.46 L 163.08 120.42 L 162.75 120.16 L 163.49 119.13 L 163.44 118.92 L 163.53 118.65 L 164.20 118.22 L 164.01 118.18 L 162.72 118.40 L 162.12 118.42 L 161.31 118.65 L 161.11 119.16 L 161.23 119.58 L 161.13 120.62 L 158.54 121.73 L 157.27 122.57 L 157.01 122.63 L 154.51 122.66 L 154.33 122.67 L 152.53 123.15 L 151.81 123.22 L 151.62 123.45 L 148.87 124.81 L 148.58 124.73 L 146.42 124.44 L 144.97 124.10 L 145.05 123.76 L 145.05 123.68 L 143.39 123.49 L 143.14 123.48 L 142.75 123.58 L 141.70 124.60 L 141.15 125.86 L 140.78 126.67 L 140.56 127.07 L 140.49 127.14 L 139.95 127.91 L 138.41 130.62 L 137.36 131.59 L 136.41 132.54 L 135.93 133.53 L 135.06 134.69 L 134.39 135.14 L 133.84 135.87 L 134.03 137.11 L 134.36 139.78 L 133.28 140.99 L 133.27 142.72 L 133.49 143.98 L 133.20 145.23 L 133.34 146.10 L 133.04 146.21 L 132.90 145.70 L 131.75 143.68 L 130.80 143.11 L 130.63 143.52 L 130.71 145.15 L 130.02 144.86 L 129.42 144.62 L 128.69 144.96 L 128.46 144.85 L 127.91 144.68 L 127.48 143.87 L 126.93 143.05 L 126.87 142.72 L 126.89 142.70 L 126.55 141.95 L 126.33 141.96 L 126.03 141.97 L 125.78 141.65 L 125.54 141.20 L 125.24 141.31 L 125.21 141.08 L 124.90 140.91 L 124.84 140.46 L 124.70 140.18 L 124.22 140.14 L 123.95 139.64 L 123.13 139.39 L 122.56 139.19 L 122.59 139.00 L 122.37 138.24 L 122.20 137.89 L 121.70 137.93 L 121.37 137.89 L 121.25 137.13 L 121.48 136.57 L 120.97 136.45 L 120.60 136.05 L 120.69 135.52 L 120.36 135.33 L 120.19 134.99 L 120.00 134.69 L 119.97 134.34 L 119.38 134.28 L 118.55 134.59 L 118.21 134.69 L 118.06 135.20 L 117.81 135.90 L 117.48 136.33 L 116.96 136.47 L 116.42 136.16 L 116.27 136.16 L 115.73 136.36 L 115.07 135.99 L 115.05 136.07 L 114.81 136.45 L 114.21 136.21 L 113.86 136.65 L 113.48 136.19 L 113.07 136.34 L 112.34 136.99 L 112.00 137.33 L 111.15 138.17 L 110.55 137.95 L 110.23 137.47 L 110.15 137.01 L 109.70 137.20 L 108.73 137.86 L 108.53 138.12 L 108.24 138.04 L 108.06 137.71 L 107.13 137.33 L 106.98 137.19 L 106.37 136.92 L 106.38 136.60 L 105.85 136.48 L 105.65 136.25 L 104.99 135.71 L 105.06 135.48 L 105.26 135.16 L 105.45 135.15 L 105.65 135.16 L 106.43 134.69 L 106.76 134.29 L 106.54 134.14 L 106.67 132.24 L 106.28 131.43 L 106.21 131.36 L 106.59 130.78 L 106.90 130.44 L 107.32 130.16 L 107.37 130.03 L 107.55 129.82 L 107.74 129.31 L 108.14 128.86 L 108.32 127.91 L 108.17 127.51 L 108.38 127.07 L 108.54 126.67 L 109.08 125.70 L 109.14 125.07 L 108.70 124.94 L 108.20 125.17 L 108.01 124.85 L 108.19 124.56 L 108.36 124.19 L 108.35 123.95 L 108.28 123.59 L 108.39 123.33 L 108.56 123.11 L 108.81 123.13 L 109.49 123.09 L 110.52 122.63 L 111.34 121.57 L 111.27 121.54 L 110.91 121.10 L 110.60 120.87 L 109.95 120.57 L 109.43 119.99 L 109.08 119.46 L 108.21 118.77 L 108.21 118.65 L 108.20 118.54 L 108.85 117.95 L 108.56 117.50 L 108.74 117.27 L 109.23 116.64 L 109.56 115.96 L 109.27 115.33 L 109.00 114.15 L 108.41 114.12 L 107.43 113.88 L 107.21 113.66 L 106.97 113.03 L 106.46 112.43 L 105.87 112.10 L 105.91 111.35 L 106.29 110.62 L 106.56 110.28 L 106.93 109.93 L 107.07 109.63 L 107.37 109.77 L 107.61 109.63 L 107.08 108.96 L 107.18 108.39 L 107.12 108.05 L 106.79 107.88 L 105.65 107.76 L 105.34 107.34 L 105.12 106.43 L 104.68 105.65 L 104.38 105.18 L 104.01 105.22 L 103.57 105.25 L 102.89 107.09 L 102.11 107.30 L 101.87 107.46 L 101.37 107.34 L 101.34 106.89 L 101.10 106.17 L 100.54 106.07 L 100.05 106.12 L 99.92 106.48 L 99.55 106.66 L 99.18 106.41 L 99.10 105.78 L 99.14 105.15 L 99.54 104.32 L 99.67 102.91 L 99.70 102.60 L 99.40 101.18 L 98.94 100.76 L 99.04 100.61 L 99.71 99.74 L 98.95 99.06 L 98.45 99.06 L 97.94 99.31 L 97.36 99.57 L 96.80 99.52 L 96.38 99.34 L 96.21 98.79 L 95.86 98.25 L 95.44 97.75 L 95.81 97.13 L 95.15 96.17 L 95.60 95.65 L 96.22 95.08 L 96.54 94.84 L 96.37 94.57 L 96.53 94.32 L 97.34 93.82 L 96.67 93.10 L 96.66 92.56 L 97.27 92.35 L 98.00 91.55 L 98.48 91.06 L 98.57 90.52 L 99.74 90.05 L 99.46 89.41 L 99.83 89.07 L 99.94 88.52 L 99.83 87.53 L 99.66 87.26 L 99.29 86.94 L 99.35 86.55 L 99.58 85.33 L 99.77 85.14 L 100.19 84.44 L 100.91 84.35 L 100.96 84.50 L 101.49 84.34 L 101.97 84.27 L 102.49 83.67 L 102.93 83.37 L 102.93 83.31 L 104.05 82.94 L 104.38 82.78 L 104.93 82.51 L 106.03 82.90 L 106.16 83.19 L 107.12 83.10 L 107.57 83.69 L 107.98 83.92 L 108.60 83.73 L 109.30 83.96 L 109.67 84.21 L 110.29 84.48 L 111.21 84.48 L 111.49 84.63 L 112.11 84.30 L 112.74 84.06 L 113.04 84.16 L 113.76 84.64 L 114.31 84.59 L 115.22 84.43 L 115.32 84.35 L 115.42 84.68 L 116.42 85.50 L 116.42 85.77 L 116.42 85.82 L 116.86 86.55 L 117.28 86.82 L 117.47 86.55 L 117.57 86.13 L 117.90 85.90 L 118.02 85.66 L 117.94 84.63 L 118.30 84.18 L 118.97 83.17 L 120.34 83.87 L 121.17 84.04 L 121.78 83.90 L 122.52 84.03 L 123.20 84.05 L 123.56 84.20 L 124.27 83.83 L 124.95 83.49 L 124.99 82.86 L 125.37 82.47 L 125.93 82.45 L 126.32 82.18 L 126.64 82.53 L 127.09 82.79 L 127.25 82.87 L 127.55 83.12 L 128.44 83.22 L 128.46 83.31 L 128.98 82.85 L 128.89 82.33 L 129.51 82.44 L 130.03 82.18 L 130.57 81.44 L 130.68 81.38 L 131.42 82.36 L 131.60 83.42 L 132.13 83.64 L 132.69 83.47 L 133.31 82.85 L 133.54 82.83 L 133.76 82.72 L 134.39 83.05 L 135.13 82.98 L 135.92 82.59 L 136.56 82.83 L 136.97 82.73 L 137.95 81.99 L 138.23 81.25 L 139.43 81.56 L 139.97 81.92 L 140.49 81.55 L 141.49 81.11 L 142.20 81.06 L 143.10 81.47 L 143.21 82.11 L 143.91 82.12 L 144.14 82.18 L 144.56 82.10 L 145.06 81.27 L 145.44 79.99 L 145.41 79.24 L 145.58 78.53 L 145.86 77.82 L 147.15 77.92 L 148.15 77.56 L 148.35 77.33 L 148.70 76.45 L 148.23 75.39 L 148.11 75.09 L 147.96 74.84 L 147.45 74.16 L 147.78 73.55 L 147.74 72.78 L 147.27 72.25 L 147.15 71.99 L 146.73 71.21 L 146.13 71.14 L 145.51 70.59 L 145.54 70.50 L 144.95 70.37 L 144.66 70.39 L 144.11 70.07 L 144.13 69.62 L 144.97 68.29 L 144.80 67.92 L 144.28 67.70 L 144.09 67.72 L 143.33 67.48 L 142.64 67.50 L 141.14 67.00 L 140.75 66.52 L 140.81 65.97 L 141.10 65.76 L 140.87 63.71 L 140.49 63.63 L 138.53 63.18 L 138.78 62.48 L 138.77 61.85 L 139.04 61.39 L 139.07 60.94 L 139.25 60.67 L 139.22 60.00 L 139.40 58.92 L 139.31 58.13 L 139.16 58.04 L 139.87 57.50 L 139.82 57.29 L 140.49 56.91 L 141.08 56.71 L 141.75 56.31 L 142.13 56.26 L 142.01 55.53 L 141.56 54.99 L 141.18 54.47 L 141.20 54.45 L 141.47 53.16 L 142.22 52.61 L 142.74 51.58 L 142.93 50.67 L 143.49 50.22 L 143.57 49.92 L 143.65 49.09 L 143.27 48.82 L 143.24 48.32 L 142.88 47.82 L 142.96 47.57 L 142.31 47.27 L 142.55 46.96 L 143.27 46.86 L 143.85 46.72 L 144.35 46.76 L 144.75 46.43 L 145.46 46.15 L 145.83 44.72 L 146.26 44.31 L 146.29 44.27 L 147.33 43.43 L 147.73 43.41 L 147.69 43.19 L 147.53 42.72 L 148.05 42.25 L 148.64 41.73 L 148.91 41.07 L 149.43 40.41 L 150.12 39.25 L 150.47 39.01 L 150.57 38.87 L 150.38 38.50 L 150.11 38.41 L 149.85 38.05 L 149.77 37.76 L 149.60 37.77 L 148.92 37.40 L 148.75 37.17 L 148.47 37.16 L 148.00 37.17 L 147.74 37.14 L 147.01 37.14 L 146.87 36.67 L 146.15 36.13 L 146.12 35.36 L 145.44 34.73 L 145.14 34.50 L 144.85 33.98 L 145.61 33.40 L 146.18 33.35 L 146.60 33.59 L 148.04 33.60 L 148.19 33.59 L 148.65 33.27 L 148.69 33.17 L 148.56 33.00 L 149.07 31.99 L 149.66 30.64 L 149.55 30.38 L 149.23 29.63 L 149.19 29.33 L 149.87 28.98 L 150.21 29.11 L 150.85 29.33 L 151.04 29.11 L 151.88 29.11 L 151.89 28.82 L 151.87 28.45 L 152.21 27.64 L 152.48 27.40 L 152.53 27.41 L 152.61 27.78 L 152.74 28.03 L 152.94 28.18 L 152.68 28.73 L 152.53 28.76 L 152.40 28.75 L 152.38 29.18 L 152.53 29.12 L 152.89 29.07 L 152.85 29.46 L 152.83 29.77 L 153.23 29.59 L 153.59 29.83 L 154.12 29.46 L 154.58 29.24 L 155.03 28.75 L 155.60 28.38 L 155.94 28.03 L 157.04 28.51 L 157.73 28.73 L 158.53 29.22 L 159.10 29.18 L 159.74 29.46 L 160.25 30.10 L 160.57 30.22 L 160.67 30.38 L 161.07 31.35 L 161.46 32.12 L 162.11 32.47 L 162.19 33.01 L 161.81 33.69 L 161.68 34.32 L 161.54 34.50 L 161.04 35.22 L 161.07 35.49 L 160.81 35.92 L 161.05 36.11 L 161.66 36.09 L 161.83 36.26 L 162.03 36.04 L 162.47 36.36 L 163.50 35.59 L 163.57 35.22 L 164.56 35.13 L 165.36 35.04 L 165.58 34.76 L 165.95 34.55 L 165.97 34.46 L 166.02 34.02 L 166.39 33.42 L 166.89 32.99 L 166.61 32.63 L 166.83 32.12 L 167.22 32.28 L 168.37 32.20 L 169.19 31.59 L 169.87 30.99 L 169.85 30.38 L 170.13 30.09 L 170.50 29.79 L 169.57 29.49 L 169.84 29.03 L 170.33 28.42 L 170.78 27.43 L 170.49 27.26 L 170.48 26.95 Z"/>
<path class="pref" d="M 161.11 119.16 L 161.31 118.65 L 162.12 118.42 L 162.72 118.40 L 164.01 118.18 L 164.20 118.22 L 163.53 118.65 L 163.44 118.92 L 163.49 119.13 L 162.75 120.16 L 163.08 120.42 L 163.78 120.46 L 164.03 121.21 L 164.49 121.32 L 164.56 121.43 L 164.75 121.48 L 164.89 122.06 L 165.22 122.38 L 166.32 122.36 L 166.58 122.81 L 167.39 122.95 L 167.58 122.91 L 167.75 123.38 L 168.30 123.65 L 169.24 123.75 L 169.43 123.93 L 169.59 124.60 L 169.29 125.26 L 169.32 126.37 L 169.42 126.67 L 169.69 126.85 L 170.13 126.67 L 170.68 126.45 L 170.98 126.62 L 170.98 126.67 L 171.43 126.80 L 171.82 127.72 L 170.94 128.40 L 171.27 129.22 L 171.38 129.37 L 172.23 129.59 L 172.56 129.56 L 172.64 129.80 L 172.60 130.66 L 172.74 130.94 L 173.78 130.92 L 174.11 131.08 L 174.36 130.78 L 174.37 130.40 L 174.71 130.03 L 176.03 130.41 L 176.41 130.50 L 176.60 130.58 L 177.35 130.82 L 177.53 130.81 L 178.86 132.13 L 179.35 132.00 L 179.70 132.13 L 180.35 131.86 L 180.78 131.87 L 181.37 132.59 L 181.58 132.75 L 181.83 133.04 L 181.85 133.29 L 181.54 133.58 L 181.75 133.68 L 181.99 134.13 L 182.55 134.56 L 182.76 134.69 L 183.15 134.73 L 183.17 134.69 L 183.56 134.66 L 183.85 134.69 L 184.20 134.82 L 184.36 134.69 L 184.49 134.50 L 184.73 134.69 L 184.81 134.69 L 185.05 134.20 L 185.42 134.05 L 186.04 134.08 L 186.16 134.09 L 186.29 134.45 L 186.85 134.06 L 187.26 133.96 L 187.70 133.53 L 188.18 133.59 L 188.42 133.18 L 188.63 133.24 L 189.08 133.10 L 189.38 132.82 L 189.65 132.82 L 189.77 132.62 L 189.97 132.57 L 189.92 132.11 L 190.16 131.62 L 190.87 131.50 L 191.25 131.35 L 191.41 131.10 L 191.76 131.32 L 192.12 131.32 L 193.17 131.22 L 193.44 131.21 L 193.86 131.19 L 194.20 131.15 L 194.51 131.05 L 194.84 131.37 L 196.10 131.95 L 196.37 132.06 L 196.77 132.35 L 196.86 132.39 L 197.12 132.49 L 197.40 132.58 L 197.49 132.54 L 198.11 132.83 L 198.13 133.13 L 197.62 133.65 L 197.84 133.93 L 198.09 133.90 L 198.02 134.25 L 198.73 134.24 L 199.94 133.96 L 200.41 133.95 L 200.67 133.74 L 201.31 134.17 L 201.77 134.03 L 202.03 134.69 L 201.83 135.19 L 201.74 135.32 L 201.95 135.60 L 202.35 135.96 L 203.17 135.87 L 203.45 135.81 L 203.81 136.13 L 204.10 136.27 L 204.24 136.45 L 205.02 135.95 L 205.99 137.36 L 206.25 137.62 L 206.90 137.33 L 207.15 136.93 L 207.33 136.87 L 207.45 136.57 L 208.23 136.43 L 208.60 135.91 L 209.17 135.96 L 209.40 135.79 L 209.80 135.34 L 210.12 135.40 L 210.70 134.69 L 211.41 134.47 L 211.43 134.33 L 212.36 134.12 L 212.71 134.12 L 212.71 133.86 L 212.71 133.63 L 213.54 133.71 L 213.71 133.41 L 214.32 133.05 L 214.41 132.74 L 214.75 132.62 L 215.01 132.70 L 214.90 131.81 L 215.52 131.70 L 215.89 131.82 L 216.29 131.97 L 216.84 131.96 L 217.33 132.00 L 217.78 131.81 L 218.15 131.73 L 218.94 131.74 L 218.97 131.22 L 219.50 131.19 L 219.77 131.91 L 219.28 132.13 L 219.03 132.34 L 218.37 132.73 L 218.50 133.63 L 217.93 134.03 L 217.59 134.17 L 217.43 134.69 L 218.10 135.96 L 219.24 136.63 L 219.80 137.20 L 220.41 137.86 L 220.53 138.08 L 220.48 138.80 L 220.47 139.88 L 220.57 139.97 L 221.53 139.86 L 222.16 139.73 L 223.14 139.16 L 223.94 138.89 L 224.20 138.86 L 224.55 138.78 L 224.74 138.78 L 225.89 138.67 L 226.88 138.95 L 226.97 138.47 L 227.40 138.31 L 227.79 138.13 L 227.80 137.50 L 228.03 137.11 L 228.77 137.14 L 229.25 137.16 L 229.84 136.84 L 230.29 136.74 L 230.56 136.47 L 231.02 136.86 L 231.69 136.58 L 232.26 136.77 L 232.81 136.58 L 233.00 136.72 L 233.46 137.04 L 233.99 137.00 L 234.36 136.86 L 234.36 137.64 L 235.09 137.74 L 235.76 137.70 L 236.20 137.88 L 236.63 137.96 L 236.78 137.85 L 237.02 137.95 L 237.21 137.84 L 238.02 137.75 L 238.80 138.08 L 238.84 138.60 L 238.65 138.89 L 238.99 139.24 L 239.41 139.42 L 239.69 139.49 L 239.95 139.51 L 240.44 139.26 L 240.90 139.37 L 241.52 139.35 L 242.11 139.10 L 244.11 138.29 L 245.56 138.62 L 244.95 138.75 L 244.58 138.72 L 244.61 139.05 L 244.86 139.34 L 244.02 139.44 L 243.73 140.23 L 243.28 141.12 L 243.04 141.12 L 242.61 141.00 L 242.19 141.43 L 242.71 142.09 L 243.23 142.31 L 243.65 142.27 L 244.13 142.72 L 244.38 143.08 L 243.93 143.83 L 244.64 144.27 L 244.45 144.59 L 243.95 144.82 L 243.30 144.39 L 243.07 145.21 L 243.29 145.57 L 242.84 145.86 L 242.30 146.50 L 241.85 146.37 L 241.56 145.93 L 241.18 146.13 L 241.24 146.77 L 241.78 147.00 L 241.87 148.26 L 241.92 148.93 L 241.38 149.23 L 241.12 149.90 L 240.98 149.91 L 239.94 149.64 L 239.80 149.49 L 239.35 150.45 L 239.38 150.74 L 239.46 151.65 L 238.78 152.12 L 238.50 152.10 L 238.07 152.49 L 237.91 152.50 L 237.71 152.73 L 236.78 153.26 L 235.79 154.02 L 235.42 154.60 L 234.96 155.23 L 234.47 155.35 L 234.25 155.61 L 234.03 155.61 L 233.93 155.70 L 233.67 156.62 L 233.29 156.94 L 232.72 157.66 L 232.36 158.77 L 232.49 159.07 L 232.60 159.35 L 232.98 159.54 L 232.68 159.99 L 232.30 160.65 L 232.96 161.74 L 232.67 161.97 L 231.90 161.83 L 231.36 162.67 L 231.15 163.28 L 230.73 163.43 L 230.62 163.42 L 230.21 164.01 L 229.88 164.33 L 229.29 164.06 L 228.56 164.31 L 228.06 164.94 L 227.54 165.64 L 227.66 166.30 L 227.35 166.79 L 227.13 167.14 L 227.12 167.78 L 226.93 167.95 L 226.74 167.94 L 226.53 168.59 L 226.59 168.98 L 226.48 169.46 L 225.92 170.01 L 224.97 170.51 L 224.74 170.64 L 224.26 170.88 L 224.03 171.11 L 223.69 171.11 L 223.51 171.10 L 222.36 171.38 L 222.27 171.92 L 222.00 172.83 L 221.37 173.52 L 220.24 173.45 L 220.07 173.45 L 219.29 173.31 L 218.40 173.36 L 217.93 173.36 L 217.76 173.63 L 217.19 174.16 L 216.70 174.31 L 216.19 174.08 L 215.81 174.24 L 215.02 174.63 L 214.84 174.81 L 213.21 175.17 L 212.89 175.76 L 213.11 176.17 L 212.71 176.35 L 212.40 176.78 L 211.74 177.23 L 212.26 177.91 L 212.38 178.38 L 212.25 178.93 L 212.32 179.61 L 211.67 179.92 L 211.19 180.16 L 210.78 180.88 L 210.96 181.16 L 210.78 181.89 L 210.78 182.54 L 210.59 182.84 L 210.67 183.43 L 211.08 184.08 L 210.93 184.63 L 211.17 185.06 L 211.36 186.09 L 211.87 186.50 L 212.15 187.95 L 211.81 189.22 L 211.51 189.61 L 211.54 190.16 L 211.47 190.48 L 208.66 190.86 L 206.98 191.13 L 200.67 192.36 L 197.71 193.01 L 195.61 193.55 L 189.11 195.31 L 188.63 195.46 L 186.19 196.30 L 185.95 196.20 L 182.99 197.00 L 179.29 198.35 L 178.77 198.51 L 176.60 198.81 L 176.53 198.81 L 175.72 198.74 L 175.25 198.75 L 174.05 198.44 L 171.62 198.89 L 168.46 199.67 L 168.12 199.67 L 167.90 199.44 L 166.56 199.68 L 166.35 199.56 L 166.61 199.10 L 166.74 199.12 L 166.85 199.15 L 167.16 198.89 L 167.76 197.68 L 170.36 192.86 L 171.16 192.00 L 172.00 191.59 L 172.54 191.60 L 173.48 192.12 L 173.56 192.39 L 173.36 192.81 L 172.99 193.10 L 173.26 193.06 L 173.69 193.07 L 174.12 193.18 L 174.41 193.17 L 175.11 193.49 L 174.68 193.79 L 174.72 194.44 L 175.16 194.08 L 175.81 194.15 L 176.00 194.13 L 176.15 194.14 L 176.28 194.24 L 176.60 194.13 L 177.77 193.74 L 178.35 193.24 L 178.12 192.79 L 177.48 192.61 L 177.20 192.41 L 177.48 192.20 L 178.77 192.43 L 179.89 192.20 L 179.98 192.34 L 181.40 192.04 L 182.48 191.27 L 182.91 190.86 L 182.98 190.72 L 183.06 190.86 L 183.49 191.05 L 184.03 190.86 L 184.65 190.16 L 185.20 190.02 L 186.18 190.31 L 186.44 190.28 L 187.19 189.67 L 187.07 189.58 L 187.40 189.10 L 187.54 189.18 L 187.60 189.14 L 188.34 189.03 L 188.33 188.90 L 188.20 188.89 L 187.96 188.87 L 187.78 188.63 L 188.18 188.42 L 188.40 188.69 L 188.78 188.47 L 188.79 188.43 L 188.58 188.30 L 188.47 188.15 L 188.46 187.85 L 188.22 187.54 L 188.52 187.37 L 189.15 187.48 L 189.55 188.10 L 189.76 188.33 L 189.98 188.37 L 190.13 188.27 L 190.08 188.08 L 190.56 187.14 L 190.06 186.44 L 192.28 184.99 L 193.83 185.28 L 193.83 188.56 L 192.83 188.56 L 192.84 188.67 L 192.49 189.44 L 192.27 189.99 L 192.44 189.99 L 193.10 189.76 L 193.19 189.53 L 194.28 189.81 L 194.42 190.04 L 194.77 189.67 L 195.26 189.08 L 194.57 188.74 L 194.86 188.33 L 195.80 188.52 L 196.16 187.75 L 195.30 187.75 L 195.29 187.99 L 194.87 188.02 L 194.88 187.90 L 194.68 187.90 L 194.55 185.57 L 194.74 185.57 L 195.43 185.60 L 196.66 185.60 L 196.60 185.92 L 196.76 185.93 L 196.76 186.13 L 196.91 186.14 L 196.92 185.93 L 197.80 186.02 L 198.03 185.71 L 198.72 185.32 L 198.30 184.89 L 197.47 185.23 L 196.51 185.05 L 196.53 184.97 L 195.71 184.82 L 195.73 182.84 L 195.77 181.13 L 196.13 181.14 L 196.69 180.20 L 196.37 179.73 L 196.09 179.29 L 195.82 179.11 L 194.84 177.98 L 194.16 177.56 L 193.56 177.32 L 193.27 177.27 L 193.28 177.36 L 193.28 177.43 L 193.20 177.80 L 193.14 177.87 L 193.06 177.90 L 192.99 177.89 L 192.92 177.85 L 192.41 177.77 L 192.31 177.77 L 192.21 177.77 L 192.08 177.80 L 191.95 177.86 L 191.86 177.85 L 191.81 177.78 L 191.78 177.60 L 191.92 177.50 L 191.92 177.37 L 191.69 177.35 L 191.60 177.35 L 191.41 177.38 L 191.34 177.49 L 191.24 177.70 L 190.94 177.89 L 190.79 177.89 L 190.65 177.92 L 190.17 177.76 L 189.69 177.88 L 189.26 177.79 L 189.03 177.80 L 188.86 177.34 L 188.70 177.13 L 188.63 177.12 L 188.63 177.10 L 188.63 177.02 L 188.26 176.89 L 188.24 177.04 L 187.10 176.82 L 187.17 176.59 L 186.79 176.52 L 186.59 176.63 L 186.49 176.48 L 185.68 176.12 L 186.30 176.73 L 186.13 176.88 L 185.70 176.67 L 185.52 176.79 L 185.95 177.12 L 185.07 178.06 L 184.01 177.30 L 183.71 177.50 L 183.59 177.44 L 183.63 177.59 L 183.06 178.62 L 182.86 179.09 L 183.14 178.97 L 183.18 179.23 L 182.89 179.34 L 182.96 179.65 L 182.96 180.11 L 182.99 180.18 L 183.13 180.62 L 182.13 181.50 L 181.73 181.64 L 181.29 181.68 L 181.04 181.44 L 181.26 181.19 L 181.52 181.19 L 181.64 180.99 L 181.67 180.76 L 181.91 180.45 L 181.85 180.28 L 181.93 180.20 L 181.73 180.18 L 181.77 179.88 L 181.07 179.52 L 181.06 179.73 L 180.73 179.73 L 180.39 179.67 L 180.49 179.76 L 180.22 179.86 L 179.78 180.03 L 179.37 180.04 L 178.96 179.53 L 178.69 179.51 L 178.47 179.49 L 178.33 179.40 L 177.94 179.40 L 177.76 179.59 L 177.66 180.03 L 176.92 179.99 L 176.60 179.61 L 176.04 179.35 L 176.17 179.29 L 175.03 179.18 L 175.18 179.51 L 174.83 179.59 L 174.85 179.72 L 174.36 179.90 L 173.49 180.53 L 173.28 180.69 L 172.93 180.08 L 172.20 179.63 L 171.53 179.62 L 170.90 179.92 L 169.69 180.28 L 169.64 180.30 L 169.54 180.50 L 168.95 180.65 L 167.92 180.46 L 167.50 180.51 L 166.79 179.85 L 166.28 179.54 L 166.38 179.49 L 166.70 179.33 L 166.42 179.33 L 166.27 178.88 L 166.04 178.71 L 164.99 178.03 L 164.66 177.07 L 164.91 177.07 L 164.56 176.78 L 164.05 176.79 L 163.96 176.80 L 163.13 176.61 L 162.57 176.48 L 162.05 176.34 L 161.78 176.26 L 161.43 176.15 L 161.27 175.93 L 161.16 175.78 L 161.03 175.58 L 160.89 175.63 L 160.75 175.70 L 160.14 176.08 L 160.04 175.95 L 159.91 175.79 L 160.26 175.57 L 160.39 175.49 L 160.40 175.48 L 160.45 175.49 L 160.46 175.50 L 160.44 175.51 L 160.39 175.54 L 160.35 175.56 L 160.33 175.58 L 160.32 175.59 L 160.32 175.60 L 160.46 175.80 L 160.47 175.80 L 160.48 175.81 L 160.49 175.81 L 160.74 175.68 L 160.88 175.61 L 161.01 175.57 L 161.01 175.44 L 160.97 175.39 L 160.93 175.36 L 160.88 175.36 L 160.87 175.36 L 160.69 175.12 L 160.66 174.92 L 160.65 174.82 L 160.68 174.81 L 160.70 174.66 L 160.63 174.55 L 160.39 174.20 L 160.29 173.63 L 160.32 173.63 L 160.42 174.19 L 160.54 174.19 L 160.49 173.89 L 160.42 173.68 L 160.55 173.50 L 160.54 173.05 L 161.53 171.89 L 161.81 171.43 L 161.66 171.37 L 161.77 171.12 L 162.42 171.31 L 162.44 171.32 L 162.56 171.10 L 162.55 171.08 L 162.04 170.91 L 162.61 169.35 L 163.29 169.35 L 163.22 168.99 L 162.91 168.99 L 162.90 169.22 L 162.69 169.22 L 162.67 169.00 L 162.69 168.00 L 162.85 166.79 L 162.78 166.31 L 162.96 166.32 L 163.14 165.87 L 162.87 165.47 L 163.42 163.96 L 163.47 163.27 L 163.30 163.31 L 163.20 163.00 L 163.02 163.00 L 162.74 164.43 L 162.46 164.41 L 162.52 164.49 L 162.46 165.61 L 162.30 166.79 L 162.30 166.99 L 162.19 167.05 L 161.88 167.32 L 162.19 167.53 L 162.24 167.57 L 162.15 167.88 L 162.07 167.95 L 161.91 168.56 L 161.89 168.57 L 160.73 170.53 L 161.40 170.96 L 161.26 171.20 L 160.98 171.08 L 160.88 171.49 L 160.68 171.41 L 160.78 171.01 L 159.47 170.56 L 159.07 170.90 L 158.74 170.81 L 158.53 171.15 L 158.75 171.23 L 159.15 170.99 L 159.65 171.20 L 159.63 171.66 L 159.15 172.30 L 159.05 172.43 L 157.93 172.02 L 157.92 172.70 L 158.01 172.71 L 158.12 172.65 L 158.65 172.82 L 158.77 172.92 L 158.77 173.11 L 158.68 173.11 L 158.60 173.16 L 158.60 173.66 L 158.57 173.66 L 158.08 173.66 L 158.06 173.30 L 157.82 173.30 L 157.97 173.90 L 158.13 173.90 L 158.05 174.81 L 158.08 175.47 L 157.50 175.49 L 157.49 175.26 L 157.32 175.60 L 157.81 175.69 L 157.65 176.98 L 157.16 177.06 L 157.31 177.78 L 157.09 178.46 L 157.25 178.72 L 156.99 179.46 L 156.62 181.13 L 157.06 181.60 L 157.82 181.78 L 157.85 182.40 L 158.67 182.84 L 158.71 183.04 L 159.29 183.40 L 159.34 183.41 L 159.86 184.03 L 160.42 184.31 L 161.32 184.62 L 161.92 185.51 L 161.80 185.69 L 161.35 185.76 L 161.44 186.05 L 161.28 185.98 L 161.34 186.26 L 161.75 186.14 L 161.93 186.29 L 162.17 186.29 L 162.17 186.52 L 161.92 186.71 L 161.74 187.05 L 161.94 186.98 L 162.26 187.50 L 162.45 187.47 L 162.56 187.39 L 162.57 187.80 L 162.36 187.70 L 162.32 188.02 L 161.99 188.06 L 162.20 188.18 L 162.18 188.38 L 161.59 187.92 L 161.54 187.88 L 160.95 187.89 L 159.93 187.97 L 159.77 187.79 L 159.55 187.90 L 159.06 187.69 L 159.21 187.50 L 158.96 187.38 L 158.86 187.46 L 158.69 187.21 L 158.42 187.30 L 158.35 187.47 L 158.53 187.50 L 158.50 187.72 L 158.10 187.68 L 158.15 187.54 L 157.92 187.39 L 157.40 187.32 L 157.45 187.22 L 156.99 187.10 L 156.88 187.00 L 156.31 186.68 L 155.44 186.36 L 155.24 186.16 L 154.34 185.99 L 153.83 185.75 L 152.53 184.93 L 152.26 184.58 L 151.62 184.28 L 151.27 183.91 L 150.56 183.29 L 150.25 182.84 L 150.02 182.59 L 149.61 181.90 L 149.45 181.81 L 149.69 181.69 L 151.22 178.08 L 151.54 176.98 L 151.61 176.80 L 152.00 174.81 L 151.71 173.86 L 151.21 173.23 L 151.11 172.32 L 150.44 171.69 L 149.18 171.03 L 149.28 170.85 L 149.48 170.92 L 149.54 170.76 L 149.37 170.77 L 149.47 170.63 L 149.24 170.22 L 149.04 170.49 L 148.97 170.50 L 149.01 170.75 L 148.73 171.17 L 148.44 170.98 L 148.20 171.10 L 148.07 170.96 L 147.93 170.76 L 147.84 170.62 L 147.69 170.37 L 147.64 170.27 L 147.67 170.23 L 147.70 170.17 L 147.66 169.82 L 147.71 169.80 L 147.71 169.75 L 147.79 169.65 L 147.87 169.57 L 147.97 169.49 L 148.05 169.42 L 148.17 169.36 L 147.78 168.45 L 147.78 168.44 L 147.95 168.22 L 147.85 168.21 L 147.77 168.21 L 147.86 166.79 L 147.84 165.53 L 148.02 164.91 L 148.34 162.85 L 148.34 162.82 L 147.56 162.33 L 148.58 161.13 L 149.07 161.35 L 149.30 161.00 L 148.85 160.79 L 149.57 160.00 L 149.50 159.95 L 150.04 159.17 L 150.54 159.23 L 150.64 159.07 L 150.83 158.77 L 149.88 158.64 L 150.00 158.32 L 150.13 158.32 L 150.32 158.07 L 151.81 158.21 L 151.84 158.47 L 151.97 158.57 L 152.32 158.28 L 152.40 157.89 L 150.95 157.66 L 150.60 157.51 L 152.25 155.06 L 152.38 154.62 L 152.38 154.28 L 151.92 154.26 L 152.33 153.07 L 152.12 152.99 L 152.53 152.30 L 152.69 152.15 L 153.43 152.18 L 153.52 152.33 L 153.65 152.28 L 153.78 152.28 L 153.80 151.90 L 153.97 151.90 L 153.95 152.29 L 154.22 152.30 L 154.26 151.71 L 154.84 151.72 L 154.85 151.63 L 154.29 151.60 L 154.29 151.14 L 154.43 150.98 L 154.89 150.97 L 154.27 150.74 L 154.46 150.25 L 154.11 150.02 L 153.77 150.54 L 153.35 150.48 L 153.39 150.27 L 153.23 150.25 L 153.19 150.47 L 152.85 150.38 L 152.65 150.57 L 152.62 150.56 L 152.53 150.50 L 152.23 150.14 L 152.08 150.12 L 152.22 150.45 L 152.11 150.74 L 152.06 150.83 L 152.19 151.09 L 151.92 151.81 L 151.77 151.49 L 151.49 151.82 L 151.64 152.08 L 151.61 152.35 L 151.46 152.19 L 151.06 152.10 L 150.95 151.80 L 150.81 152.33 L 150.93 152.35 L 150.97 152.34 L 151.33 152.47 L 151.19 153.39 L 150.88 153.44 L 150.77 153.76 L 150.61 154.84 L 150.19 154.57 L 150.03 154.70 L 150.37 155.20 L 149.99 154.96 L 149.83 155.07 L 150.20 155.57 L 150.14 155.66 L 150.02 155.80 L 149.26 154.14 L 149.49 153.70 L 150.17 153.69 L 150.15 153.43 L 149.81 153.37 L 150.37 151.57 L 150.15 151.06 L 149.34 151.15 L 148.32 151.11 L 147.97 151.35 L 147.74 151.54 L 147.86 152.07 L 147.61 152.13 L 147.38 152.98 L 147.86 152.98 L 147.86 152.50 L 148.67 152.84 L 148.83 153.14 L 148.49 154.06 L 149.31 156.10 L 149.07 156.19 L 146.78 156.61 L 146.63 156.51 L 146.56 154.33 L 147.13 154.33 L 147.23 154.12 L 146.23 154.11 L 145.30 154.12 L 145.31 155.37 L 145.64 155.36 L 145.64 156.22 L 144.25 155.65 L 143.73 155.84 L 145.24 156.92 L 145.02 157.64 L 144.24 157.20 L 143.81 157.33 L 143.48 156.97 L 142.76 157.01 L 142.72 156.96 L 142.97 156.73 L 142.06 155.72 L 141.10 153.96 L 140.99 153.40 L 140.89 151.64 L 140.49 151.14 L 139.89 150.74 L 139.21 149.96 L 137.98 149.19 L 137.75 149.19 L 137.34 148.98 L 136.14 147.69 L 135.60 147.17 L 133.82 146.69 L 133.34 146.10 L 133.20 145.23 L 133.49 143.98 L 133.27 142.72 L 133.28 140.99 L 134.36 139.78 L 134.03 137.11 L 133.84 135.87 L 134.39 135.14 L 135.06 134.69 L 135.93 133.53 L 136.41 132.54 L 137.36 131.59 L 138.41 130.62 L 139.95 127.91 L 140.49 127.14 L 140.56 127.07 L 140.78 126.67 L 141.15 125.86 L 141.70 124.60 L 142.75 123.58 L 143.14 123.48 L 143.39 123.49 L 145.05 123.68 L 145.05 123.76 L 144.97 124.10 L 146.42 124.44 L 148.58 124.73 L 148.87 124.81 L 151.62 123.45 L 151.81 123.22 L 152.53 123.15 L 154.33 122.67 L 154.51 122.66 L 157.01 122.63 L 157.27 122.57 L 158.54 121.73 L 161.13 120.62 L 161.23 119.58 L 161.11 119.16 Z M 146.76 159.45 L 146.19 159.07 L 145.66 158.72 L 146.01 158.33 L 146.46 157.86 L 146.60 157.78 L 147.21 157.46 L 147.46 157.42 L 147.70 157.38 L 147.70 157.83 L 147.70 158.08 L 147.70 158.30 L 147.65 158.36 L 147.31 158.76 L 147.06 159.07 L 146.76 159.45 Z M 147.57 163.91 L 146.67 163.42 L 147.42 162.50 L 147.79 162.71 L 147.71 162.81 L 147.96 162.95 L 148.05 162.85 L 148.09 162.88 L 147.84 163.58 L 147.57 163.91 Z M 146.44 174.55 L 146.42 174.55 L 146.41 174.55 L 146.39 174.54 L 146.37 174.54 L 146.35 174.53 L 146.34 174.52 L 146.31 174.50 L 146.30 174.49 L 146.29 174.47 L 146.28 174.45 L 146.27 174.41 L 146.25 174.31 L 146.22 174.21 L 146.22 174.20 L 146.23 174.13 L 146.23 174.02 L 146.23 173.96 L 146.23 173.95 L 146.23 173.94 L 146.23 173.91 L 146.22 173.86 L 146.19 173.71 L 145.88 172.47 L 145.84 172.28 L 145.72 171.78 L 145.70 171.66 L 145.67 171.58 L 145.67 171.56 L 145.61 171.46 L 145.58 171.40 L 145.56 171.37 L 145.53 171.32 L 145.52 171.30 L 145.51 171.26 L 145.50 171.22 L 145.48 171.17 L 145.47 171.13 L 145.47 171.12 L 145.47 171.09 L 145.47 171.07 L 145.46 171.05 L 145.46 171.02 L 145.47 171.00 L 145.47 170.99 L 145.48 170.97 L 145.50 170.96 L 145.50 170.94 L 145.52 170.93 L 145.55 170.92 L 145.57 170.91 L 145.63 170.90 L 145.73 170.87 L 145.84 170.85 L 145.92 170.84 L 145.96 170.84 L 146.01 170.83 L 146.06 170.83 L 146.12 170.84 L 146.16 170.85 L 146.21 170.87 L 146.24 170.89 L 146.28 170.91 L 146.33 170.93 L 146.47 171.00 L 146.58 171.06 L 146.67 171.10 L 146.76 171.15 L 146.80 171.18 L 146.86 171.21 L 146.90 171.25 L 146.95 171.28 L 147.00 171.32 L 147.06 171.38 L 147.12 171.43 L 147.19 171.50 L 147.29 171.60 L 147.34 171.66 L 147.38 171.70 L 147.48 171.81 L 147.54 171.89 L 147.56 171.92 L 147.58 171.96 L 147.62 172.01 L 147.64 172.05 L 147.68 172.12 L 147.72 172.22 L 147.73 172.24 L 147.76 172.32 L 147.77 172.38 L 147.66 172.40 L 147.47 172.44 L 147.37 172.72 L 147.52 173.33 L 147.54 173.42 L 147.64 173.44 L 147.94 173.40 L 147.94 173.51 L 147.95 173.57 L 147.95 173.65 L 147.43 173.73 L 147.16 173.77 L 146.82 173.83 L 146.87 174.07 L 146.90 174.19 L 146.91 174.23 L 146.97 174.47 L 146.51 174.54 L 146.47 174.54 L 146.44 174.55 Z M 194.29 177.95 L 193.78 177.83 L 193.78 177.50 L 194.29 177.71 L 194.29 177.95 Z M 194.36 179.81 L 194.08 179.02 L 195.24 178.68 L 195.43 179.05 L 195.96 179.40 L 196.11 179.59 L 195.73 180.11 L 194.57 180.35 L 194.36 179.81 Z M 187.02 179.63 L 186.90 179.46 L 187.36 179.30 L 187.55 179.45 L 187.51 179.58 L 187.02 179.63 Z M 174.28 181.73 L 174.34 181.47 L 174.55 181.30 L 174.80 181.51 L 174.28 181.73 Z M 195.55 184.79 L 195.03 184.69 L 194.52 184.61 L 194.52 184.07 L 194.90 184.07 L 194.90 183.69 L 195.13 183.69 L 195.13 183.30 L 195.60 183.30 L 195.59 184.40 L 195.60 184.61 L 195.55 184.79 Z M 169.61 186.47 L 169.51 186.37 L 169.68 186.11 L 169.43 186.01 L 169.35 186.00 L 169.12 185.42 L 168.64 185.57 L 168.47 185.96 L 167.87 185.73 L 168.08 185.50 L 167.78 185.31 L 168.24 185.22 L 168.32 185.06 L 168.58 184.76 L 169.40 185.14 L 169.59 185.22 L 170.12 185.41 L 169.67 185.64 L 170.23 185.79 L 170.09 185.94 L 169.93 186.35 L 169.61 186.47 Z M 197.80 185.99 L 197.44 185.91 L 197.45 185.58 L 197.89 185.34 L 198.28 185.34 L 198.44 185.40 L 198.08 185.60 L 197.80 185.99 Z M 188.93 186.93 L 188.83 186.93 L 188.75 186.89 L 188.70 186.86 L 188.66 186.82 L 188.60 186.72 L 188.67 186.67 L 188.77 186.63 L 188.88 186.61 L 189.05 186.64 L 189.14 186.70 L 189.17 186.77 L 189.16 186.84 L 189.09 186.88 L 189.01 186.92 L 188.93 186.93 Z M 164.78 187.91 L 164.56 187.47 L 164.51 187.45 L 164.56 187.41 L 164.78 187.28 L 164.86 187.39 L 164.68 187.50 L 164.92 187.46 L 165.03 187.24 L 165.37 187.25 L 165.41 187.17 L 165.32 187.14 L 165.41 187.09 L 166.05 187.26 L 165.90 187.53 L 164.78 187.91 Z M 165.42 191.15 L 165.16 191.11 L 165.07 190.86 L 164.73 190.81 L 164.92 190.51 L 164.93 190.18 L 165.06 190.08 L 165.29 190.05 L 165.47 190.05 L 165.42 189.62 L 165.60 189.40 L 165.79 189.48 L 165.84 190.07 L 165.39 190.32 L 165.37 190.86 L 165.42 191.15 Z M 177.10 192.87 L 176.98 192.74 L 176.95 192.79 L 176.93 192.59 L 176.98 192.45 L 177.10 192.87 Z M 173.98 192.62 L 173.74 192.53 L 173.71 192.47 L 173.89 192.46 L 174.04 192.61 L 173.98 192.62 Z"/>
<path class="pref active active-glow" d="M 119.38 134.28 L 119.97 134.34 L 120.00 134.69 L 120.19 134.99 L 120.36 135.33 L 120.69 135.52 L 120.60 136.05 L 120.97 136.45 L 121.48 136.57 L 121.25 137.13 L 121.37 137.89 L 121.70 137.93 L 122.20 137.89 L 122.37 138.24 L 122.59 139.00 L 122.56 139.19 L 123.13 139.39 L 123.95 139.64 L 124.22 140.14 L 124.70 140.18 L 124.84 140.46 L 124.90 140.91 L 125.21 141.08 L 125.24 141.31 L 125.54 141.20 L 125.78 141.65 L 126.03 141.97 L 126.33 141.96 L 126.55 141.95 L 126.89 142.70 L 126.87 142.72 L 126.93 143.05 L 127.48 143.87 L 127.91 144.68 L 128.46 144.85 L 128.69 144.96 L 129.42 144.62 L 130.02 144.86 L 130.71 145.15 L 130.63 143.52 L 130.80 143.11 L 131.75 143.68 L 132.90 145.70 L 133.04 146.21 L 133.34 146.10 L 133.82 146.69 L 135.60 147.17 L 136.14 147.69 L 137.34 148.98 L 137.75 149.19 L 137.98 149.19 L 139.21 149.96 L 139.89 150.74 L 140.49 151.14 L 140.89 151.64 L 140.99 153.40 L 141.10 153.96 L 142.06 155.72 L 142.97 156.73 L 142.72 156.96 L 142.76 157.01 L 142.21 157.08 L 141.18 156.03 L 140.77 155.60 L 140.71 155.51 L 140.49 155.61 L 140.05 155.81 L 139.80 155.92 L 139.29 156.36 L 139.08 156.54 L 138.03 156.64 L 137.29 156.71 L 136.67 156.87 L 135.99 157.05 L 135.73 157.11 L 135.77 157.54 L 135.96 158.38 L 134.63 158.68 L 134.49 158.29 L 133.71 158.25 L 133.45 158.48 L 132.90 158.72 L 132.70 158.60 L 132.70 158.69 L 132.56 158.66 L 132.53 158.77 L 132.04 159.07 L 131.86 159.19 L 131.31 159.74 L 131.20 159.93 L 131.19 160.16 L 130.77 161.35 L 131.09 161.46 L 131.21 161.52 L 130.85 162.49 L 130.83 162.80 L 130.78 163.02 L 130.20 162.97 L 130.15 162.76 L 130.02 162.85 L 130.12 163.17 L 129.94 163.18 L 129.99 163.59 L 130.31 163.31 L 130.72 163.33 L 130.65 163.52 L 130.39 163.45 L 130.28 163.57 L 130.51 163.63 L 130.44 163.81 L 130.02 163.71 L 130.31 163.96 L 129.55 163.90 L 129.81 164.13 L 130.09 164.70 L 130.24 164.53 L 130.29 164.97 L 130.41 164.93 L 130.57 164.54 L 130.94 164.22 L 131.89 164.29 L 132.43 164.32 L 132.39 164.63 L 132.85 164.69 L 132.77 165.15 L 131.46 165.11 L 130.89 165.34 L 130.84 165.68 L 130.64 166.22 L 130.83 166.32 L 130.68 166.79 L 130.69 166.92 L 130.77 167.68 L 130.80 168.27 L 130.41 168.65 L 130.16 168.87 L 129.66 169.89 L 129.61 170.06 L 129.77 170.08 L 128.78 171.61 L 128.75 171.71 L 128.46 172.10 L 127.75 173.17 L 126.24 174.81 L 125.86 175.29 L 125.49 175.46 L 125.49 175.59 L 125.71 175.46 L 125.89 175.51 L 125.76 175.63 L 123.48 177.89 L 122.72 178.68 L 120.95 180.93 L 119.97 182.84 L 119.43 184.63 L 119.57 184.62 L 119.42 184.93 L 119.48 185.08 L 118.69 188.27 L 119.17 189.78 L 119.03 189.96 L 119.16 190.08 L 119.59 189.50 L 120.17 189.87 L 120.15 190.10 L 120.69 189.60 L 121.20 189.89 L 120.78 190.41 L 121.45 190.78 L 121.83 190.30 L 122.23 190.71 L 122.11 190.86 L 121.91 191.11 L 121.33 191.22 L 121.39 191.44 L 121.37 192.11 L 121.44 194.25 L 120.94 195.45 L 120.56 195.34 L 120.32 196.00 L 119.77 196.00 L 119.54 196.48 L 119.42 196.54 L 119.50 196.66 L 119.49 196.74 L 119.68 196.73 L 120.43 196.74 L 120.60 196.62 L 120.64 196.92 L 120.77 196.64 L 121.35 196.85 L 121.98 196.15 L 121.95 196.38 L 122.46 196.60 L 122.73 196.18 L 122.64 196.73 L 122.97 196.85 L 123.47 196.54 L 124.47 197.09 L 124.82 197.24 L 126.69 197.50 L 128.46 197.75 L 128.89 197.92 L 130.47 198.47 L 131.01 198.89 L 132.13 200.85 L 132.20 201.08 L 132.61 201.52 L 134.48 202.21 L 135.49 202.73 L 137.08 202.89 L 137.94 203.12 L 139.20 203.56 L 140.49 204.77 L 140.96 204.84 L 141.02 204.86 L 141.88 205.68 L 143.39 206.37 L 144.34 206.35 L 144.51 206.39 L 145.02 206.57 L 146.42 206.43 L 146.55 206.43 L 146.65 206.91 L 146.66 206.92 L 146.76 207.26 L 147.12 207.55 L 146.84 207.95 L 147.14 208.08 L 147.26 208.30 L 147.13 208.65 L 147.58 208.71 L 147.76 208.44 L 148.00 208.67 L 148.18 208.44 L 147.96 208.12 L 148.08 208.11 L 148.34 208.03 L 148.19 207.42 L 148.05 207.10 L 148.01 206.91 L 147.83 206.86 L 148.59 206.63 L 148.88 206.91 L 148.84 207.08 L 148.93 207.16 L 148.93 207.29 L 149.08 207.78 L 148.99 208.10 L 149.24 208.23 L 149.58 207.92 L 149.60 208.12 L 149.68 208.36 L 149.84 208.29 L 149.95 208.92 L 150.11 209.26 L 150.08 209.64 L 150.31 209.94 L 150.47 209.82 L 150.33 209.34 L 150.52 209.17 L 150.77 209.32 L 151.40 209.26 L 151.78 209.09 L 152.04 209.13 L 152.12 209.35 L 152.29 209.66 L 152.53 209.75 L 152.60 209.73 L 153.06 209.73 L 152.53 210.02 L 152.53 210.13 L 152.61 210.17 L 152.53 210.21 L 152.53 210.64 L 152.53 210.70 L 152.53 210.88 L 152.53 210.91 L 151.91 210.81 L 151.88 211.09 L 152.09 210.90 L 152.50 211.32 L 152.53 211.32 L 152.53 211.37 L 152.35 211.38 L 152.19 211.36 L 151.98 211.51 L 152.02 211.65 L 152.53 211.58 L 152.80 211.47 L 153.04 211.48 L 152.83 211.97 L 153.13 211.94 L 153.67 212.07 L 153.75 212.24 L 153.63 212.24 L 153.66 212.33 L 153.56 212.48 L 153.40 212.92 L 152.96 213.10 L 153.03 213.16 L 153.28 213.17 L 153.58 213.46 L 153.53 213.57 L 152.89 214.09 L 153.71 213.73 L 153.96 213.42 L 154.36 213.50 L 154.25 213.35 L 153.80 213.24 L 153.69 213.28 L 153.61 213.06 L 154.03 212.56 L 154.37 212.71 L 154.34 212.26 L 154.56 212.26 L 155.04 212.25 L 154.55 211.99 L 154.91 211.70 L 155.84 211.88 L 156.07 211.87 L 156.17 211.52 L 156.53 211.71 L 156.88 212.19 L 157.08 212.44 L 157.49 212.51 L 157.54 212.90 L 157.15 213.01 L 157.36 213.35 L 157.33 213.77 L 157.31 214.00 L 157.10 214.45 L 157.53 214.86 L 157.53 214.93 L 157.56 215.14 L 157.93 215.56 L 157.49 215.67 L 156.99 215.97 L 156.95 216.40 L 156.90 216.46 L 156.69 216.63 L 156.62 216.72 L 156.20 217.01 L 156.13 217.79 L 156.65 218.10 L 156.16 218.01 L 155.92 218.32 L 156.38 218.63 L 156.45 219.17 L 155.55 219.12 L 155.33 218.91 L 155.49 218.78 L 155.10 218.92 L 155.12 218.07 L 154.64 217.85 L 153.99 218.45 L 153.89 218.36 L 154.02 217.86 L 154.08 217.61 L 153.85 217.94 L 153.58 217.83 L 153.51 217.91 L 153.29 217.96 L 153.52 218.08 L 153.46 218.68 L 153.39 218.73 L 153.19 218.66 L 152.53 218.28 L 152.25 217.95 L 152.53 218.47 L 152.64 218.61 L 152.91 219.67 L 152.53 219.33 L 152.25 219.25 L 152.02 219.29 L 152.09 219.33 L 152.45 219.59 L 152.24 219.81 L 152.12 219.68 L 152.04 219.91 L 151.46 219.97 L 151.12 220.36 L 150.95 220.00 L 150.48 219.64 L 150.12 219.55 L 149.94 219.63 L 149.65 219.57 L 149.69 219.70 L 149.89 219.89 L 149.22 220.03 L 149.23 220.26 L 148.82 220.56 L 148.71 220.45 L 148.41 220.31 L 147.49 220.18 L 146.90 219.97 L 147.00 220.27 L 147.74 220.41 L 147.52 220.84 L 148.05 221.39 L 148.25 221.35 L 149.03 221.20 L 149.27 220.87 L 149.38 220.99 L 149.52 220.73 L 149.49 220.56 L 149.53 220.19 L 149.95 220.04 L 150.03 219.77 L 150.51 219.90 L 150.63 219.90 L 150.53 221.07 L 150.78 220.84 L 151.05 220.68 L 151.48 220.55 L 151.52 220.30 L 151.81 220.35 L 151.81 220.64 L 151.81 220.72 L 151.92 220.70 L 152.23 221.06 L 152.22 221.20 L 151.72 221.34 L 151.44 221.54 L 151.55 221.53 L 151.93 221.62 L 151.91 222.35 L 152.20 222.23 L 152.34 221.69 L 152.53 221.70 L 152.57 221.70 L 152.53 221.60 L 152.53 221.50 L 153.09 221.18 L 153.76 220.56 L 153.88 220.67 L 154.01 220.92 L 154.03 220.62 L 154.27 220.67 L 154.12 220.54 L 154.39 220.19 L 154.62 220.32 L 154.71 220.54 L 154.87 220.53 L 154.86 220.47 L 155.03 220.49 L 155.00 220.34 L 155.26 220.44 L 155.59 220.36 L 156.03 220.18 L 155.89 220.52 L 155.68 220.54 L 155.28 221.17 L 154.90 221.41 L 154.79 221.39 L 154.39 221.74 L 154.05 221.92 L 153.59 222.08 L 153.11 222.96 L 153.11 223.76 L 153.65 224.55 L 154.32 224.99 L 154.47 225.21 L 153.94 225.85 L 154.06 226.35 L 153.92 226.35 L 153.74 226.65 L 154.19 226.83 L 154.68 227.27 L 154.73 227.53 L 154.83 227.70 L 155.08 227.87 L 155.09 227.98 L 155.06 228.55 L 155.21 228.30 L 155.33 228.45 L 155.22 228.77 L 155.04 228.83 L 154.62 228.76 L 154.03 228.87 L 153.76 228.89 L 153.44 229.02 L 152.53 229.08 L 152.31 229.07 L 152.29 229.45 L 152.53 229.74 L 152.53 229.92 L 152.13 230.09 L 151.75 230.09 L 151.49 230.09 L 151.28 230.15 L 150.75 230.15 L 150.23 230.68 L 150.17 230.98 L 150.18 231.62 L 149.92 231.22 L 149.19 231.12 L 148.87 231.10 L 147.99 231.25 L 146.29 230.98 L 146.26 230.81 L 145.40 230.82 L 145.25 230.65 L 144.95 230.75 L 144.86 230.63 L 144.56 230.61 L 144.00 230.46 L 143.98 230.33 L 143.45 230.27 L 143.21 230.38 L 143.06 230.49 L 142.77 230.38 L 142.70 230.32 L 142.34 230.29 L 142.22 230.10 L 141.78 229.50 L 140.86 229.40 L 140.99 229.12 L 141.15 229.13 L 141.37 229.06 L 141.60 229.16 L 142.24 228.62 L 142.47 228.64 L 142.70 228.55 L 142.99 228.68 L 143.29 228.60 L 143.58 228.70 L 143.34 228.88 L 143.65 228.84 L 143.93 228.71 L 144.01 228.75 L 144.10 228.57 L 144.25 228.64 L 144.37 228.62 L 144.67 228.64 L 144.58 228.86 L 144.62 228.89 L 144.96 229.23 L 145.09 229.15 L 144.93 229.13 L 144.90 228.62 L 145.17 228.75 L 145.53 228.89 L 145.58 228.84 L 145.66 228.91 L 145.75 228.88 L 145.96 229.27 L 146.07 229.14 L 146.58 229.17 L 146.56 229.08 L 146.82 229.14 L 146.80 229.37 L 146.79 229.44 L 146.90 229.42 L 146.75 229.63 L 146.85 229.73 L 146.61 229.86 L 146.74 229.97 L 147.07 229.88 L 147.19 229.88 L 147.22 229.74 L 147.17 229.68 L 147.36 229.57 L 147.53 229.20 L 147.42 229.16 L 147.41 229.23 L 147.26 229.06 L 147.49 229.07 L 147.58 229.13 L 147.72 229.15 L 147.67 229.35 L 147.79 229.27 L 148.01 229.27 L 148.20 229.15 L 148.15 229.47 L 148.32 229.28 L 148.41 229.51 L 148.33 229.79 L 148.06 229.90 L 148.13 229.98 L 148.25 229.95 L 148.28 230.20 L 148.46 230.45 L 148.57 230.36 L 148.47 229.99 L 148.42 229.77 L 148.64 229.78 L 148.88 229.74 L 148.95 229.68 L 148.86 229.93 L 149.08 229.80 L 148.90 230.22 L 148.87 230.44 L 148.99 230.42 L 149.15 230.18 L 149.15 230.11 L 149.28 230.11 L 149.26 230.08 L 149.32 230.02 L 149.43 229.90 L 149.52 229.92 L 149.59 229.74 L 149.77 229.74 L 149.71 229.62 L 149.86 229.65 L 149.89 229.58 L 150.24 229.34 L 150.26 229.32 L 150.30 229.22 L 150.42 229.04 L 150.56 229.04 L 150.19 229.54 L 150.24 229.74 L 150.31 229.73 L 150.53 229.74 L 150.48 229.56 L 150.92 229.70 L 151.29 229.81 L 151.29 229.72 L 150.72 229.46 L 150.73 229.28 L 150.68 229.20 L 151.03 229.32 L 151.23 229.34 L 151.63 229.35 L 151.62 229.24 L 151.10 229.08 L 151.39 228.99 L 151.47 228.95 L 150.92 228.98 L 150.78 228.98 L 150.87 228.86 L 150.83 228.81 L 150.75 228.78 L 151.04 228.68 L 151.06 228.61 L 151.29 228.50 L 151.03 228.52 L 151.06 228.45 L 150.88 228.41 L 150.85 228.49 L 150.42 228.57 L 150.30 228.73 L 150.15 228.84 L 150.11 228.72 L 150.05 228.58 L 149.98 228.32 L 149.84 228.62 L 149.79 228.77 L 149.81 228.87 L 149.81 228.95 L 149.80 229.11 L 149.78 229.18 L 149.61 229.14 L 149.34 229.31 L 149.30 229.14 L 149.53 228.88 L 149.30 228.91 L 148.83 229.31 L 148.64 229.10 L 148.71 229.04 L 148.84 229.04 L 148.96 229.01 L 148.91 228.87 L 148.79 228.88 L 148.53 228.88 L 148.73 228.59 L 148.68 228.54 L 148.77 228.08 L 148.41 228.06 L 148.34 227.87 L 148.60 227.95 L 148.78 227.93 L 149.01 227.98 L 149.27 227.98 L 149.00 227.80 L 148.87 227.30 L 149.06 227.30 L 149.12 227.50 L 149.26 227.37 L 149.69 227.38 L 150.49 227.76 L 150.69 227.77 L 150.94 227.85 L 151.29 227.77 L 151.42 227.82 L 151.54 227.83 L 151.72 227.73 L 151.90 227.77 L 152.03 227.77 L 151.79 227.39 L 151.74 227.26 L 151.56 227.46 L 151.37 227.40 L 151.03 227.66 L 150.99 227.49 L 150.59 227.46 L 150.79 227.23 L 150.26 227.33 L 150.38 227.08 L 150.11 226.96 L 150.14 226.56 L 150.26 226.57 L 150.47 226.40 L 150.09 226.40 L 149.67 227.01 L 149.61 226.75 L 149.31 226.89 L 149.32 226.74 L 149.03 226.82 L 149.12 226.73 L 148.75 226.77 L 148.53 226.64 L 148.59 226.49 L 148.73 226.44 L 148.59 226.35 L 148.52 226.40 L 148.24 226.38 L 148.37 226.18 L 148.44 226.13 L 148.52 226.16 L 148.58 226.10 L 148.65 226.13 L 148.72 225.93 L 148.83 226.05 L 148.93 226.03 L 149.09 226.16 L 149.12 226.26 L 149.26 226.20 L 149.43 226.37 L 149.50 226.19 L 149.26 225.96 L 149.43 225.79 L 149.81 226.02 L 149.99 226.03 L 150.13 226.10 L 150.13 225.95 L 150.29 225.81 L 150.59 225.82 L 150.16 225.67 L 149.77 225.65 L 149.46 225.54 L 149.88 225.41 L 150.22 225.20 L 149.76 225.11 L 149.36 225.38 L 149.23 225.58 L 149.23 225.72 L 148.60 225.70 L 148.35 225.64 L 148.28 225.60 L 148.18 225.57 L 147.91 225.40 L 148.09 225.05 L 148.04 224.98 L 147.93 225.07 L 147.82 224.99 L 147.58 225.09 L 147.33 225.29 L 147.15 225.36 L 146.79 225.49 L 146.72 225.54 L 146.67 225.42 L 146.57 225.38 L 146.49 225.56 L 146.31 225.55 L 146.25 225.64 L 146.08 225.62 L 146.27 225.28 L 146.38 225.32 L 146.41 225.25 L 146.29 225.07 L 146.25 225.14 L 146.07 225.02 L 146.01 224.73 L 145.90 224.75 L 146.01 224.60 L 146.12 224.45 L 146.17 224.02 L 146.42 223.89 L 146.55 223.93 L 146.67 223.82 L 146.12 223.81 L 145.90 224.39 L 145.36 224.66 L 145.81 224.94 L 145.70 225.15 L 145.50 225.08 L 145.36 225.12 L 145.44 225.40 L 145.26 225.40 L 145.38 225.62 L 145.14 225.52 L 144.87 225.60 L 145.02 225.78 L 145.17 225.75 L 145.42 225.81 L 145.38 225.88 L 145.55 225.90 L 145.54 225.98 L 145.64 225.92 L 145.78 225.89 L 145.81 225.97 L 145.90 225.94 L 145.98 226.04 L 145.94 226.22 L 146.17 226.17 L 146.30 226.39 L 146.43 226.37 L 146.64 226.74 L 146.33 226.83 L 146.34 226.70 L 146.26 226.67 L 146.10 226.90 L 145.94 226.92 L 145.76 226.82 L 145.63 226.87 L 145.55 226.92 L 145.71 227.15 L 145.66 227.21 L 145.37 227.41 L 145.29 227.35 L 145.04 227.27 L 144.97 227.32 L 144.84 227.62 L 143.48 227.22 L 143.83 226.90 L 143.71 226.92 L 143.74 226.74 L 143.84 226.74 L 143.83 226.65 L 143.99 226.56 L 143.82 226.54 L 143.71 226.47 L 143.63 226.57 L 143.50 226.57 L 143.17 226.89 L 143.03 226.74 L 143.07 226.13 L 143.48 226.13 L 143.86 225.83 L 143.57 225.95 L 143.45 225.93 L 143.31 225.95 L 143.23 225.91 L 143.12 225.95 L 143.09 225.72 L 142.93 225.56 L 143.08 225.40 L 143.07 225.22 L 143.20 225.22 L 143.43 225.02 L 143.30 225.01 L 142.67 225.25 L 142.59 225.58 L 142.46 225.29 L 142.21 225.13 L 142.05 225.13 L 142.10 225.06 L 141.92 224.98 L 141.85 225.16 L 141.60 225.00 L 141.77 225.31 L 142.08 225.27 L 141.95 225.40 L 141.99 225.49 L 142.08 225.59 L 142.14 225.67 L 142.23 226.06 L 141.95 226.07 L 141.95 226.01 L 141.70 225.82 L 141.65 226.02 L 141.72 226.37 L 141.58 226.38 L 141.47 226.29 L 141.37 226.26 L 141.25 226.26 L 141.11 226.24 L 141.33 226.51 L 141.18 226.57 L 141.22 226.63 L 141.07 226.65 L 141.83 226.83 L 142.31 227.08 L 142.12 227.23 L 141.53 226.97 L 141.08 226.96 L 140.81 227.12 L 140.49 226.87 L 139.88 226.60 L 139.76 226.37 L 139.01 226.29 L 138.27 226.08 L 137.48 226.28 L 137.17 226.52 L 137.38 226.73 L 137.14 227.07 L 136.68 227.03 L 136.36 227.28 L 136.30 227.38 L 136.22 227.28 L 135.96 227.15 L 135.80 227.44 L 135.30 227.51 L 135.03 227.76 L 135.02 228.02 L 134.71 227.96 L 134.77 227.67 L 134.63 227.33 L 134.74 227.35 L 135.10 227.05 L 134.97 226.90 L 134.89 226.50 L 134.80 226.36 L 134.90 225.94 L 135.18 225.46 L 135.49 225.67 L 135.60 225.46 L 135.68 225.38 L 135.91 225.29 L 135.83 225.25 L 135.34 225.20 L 135.45 224.70 L 135.55 224.56 L 135.93 224.75 L 136.04 224.75 L 136.11 224.51 L 135.79 224.27 L 135.91 224.03 L 136.02 224.11 L 136.12 224.07 L 136.32 224.25 L 136.38 224.18 L 136.52 224.37 L 136.84 224.81 L 136.90 224.48 L 136.82 224.38 L 136.77 224.18 L 136.56 223.91 L 136.37 223.77 L 136.80 223.53 L 136.95 223.55 L 136.96 223.71 L 137.07 223.77 L 137.13 223.47 L 137.30 223.79 L 137.51 224.21 L 137.55 223.95 L 137.72 223.80 L 137.81 223.75 L 137.71 223.72 L 137.43 223.54 L 137.65 223.55 L 137.89 223.53 L 137.67 223.39 L 138.74 223.25 L 138.80 223.16 L 138.14 223.21 L 138.24 222.96 L 138.41 222.64 L 138.35 222.42 L 138.59 222.41 L 138.26 222.23 L 138.05 222.80 L 137.77 222.44 L 137.50 222.67 L 137.33 222.43 L 137.31 222.01 L 137.19 222.21 L 137.18 222.28 L 136.96 222.18 L 137.10 222.39 L 136.97 222.64 L 136.95 222.70 L 136.87 222.81 L 136.87 222.96 L 136.81 222.96 L 136.75 222.96 L 136.55 222.96 L 136.53 222.69 L 136.68 222.77 L 136.74 222.54 L 136.65 222.48 L 136.61 222.53 L 136.37 222.46 L 136.73 221.99 L 136.73 221.79 L 136.30 221.88 L 136.05 221.85 L 135.85 222.07 L 135.85 221.78 L 135.31 221.83 L 135.34 221.97 L 135.66 222.31 L 135.39 222.55 L 135.52 222.66 L 135.49 222.96 L 135.45 223.05 L 135.17 223.32 L 134.99 223.27 L 135.01 223.34 L 134.68 223.83 L 134.28 224.18 L 134.13 223.91 L 134.70 223.35 L 134.36 223.32 L 134.78 222.96 L 134.63 222.95 L 134.44 222.96 L 134.34 223.10 L 133.88 222.96 L 134.04 222.75 L 134.22 222.77 L 134.47 222.69 L 134.51 222.60 L 134.94 222.29 L 135.10 222.14 L 134.71 222.23 L 134.64 222.16 L 134.19 222.42 L 133.73 222.69 L 133.50 222.71 L 133.29 222.72 L 133.33 222.33 L 132.86 222.21 L 132.12 222.11 L 132.01 222.39 L 131.81 222.42 L 131.82 222.70 L 132.36 222.69 L 132.54 222.69 L 132.67 222.69 L 133.19 222.96 L 133.04 223.18 L 133.21 223.31 L 132.91 223.46 L 132.64 223.69 L 133.28 223.91 L 133.33 224.11 L 133.02 224.18 L 132.39 224.00 L 132.30 223.77 L 132.22 223.83 L 132.09 223.75 L 132.03 223.87 L 131.89 224.00 L 132.19 224.20 L 132.05 224.49 L 131.75 224.70 L 131.35 224.25 L 131.09 224.90 L 130.77 224.95 L 130.71 225.02 L 130.47 225.31 L 130.02 225.25 L 129.99 225.68 L 130.11 225.36 L 130.23 225.72 L 130.59 225.56 L 130.63 225.25 L 130.88 225.43 L 131.30 225.21 L 131.41 225.09 L 131.42 224.93 L 131.62 224.95 L 131.86 225.03 L 132.18 225.12 L 131.69 225.53 L 131.91 225.51 L 132.15 225.53 L 132.43 225.30 L 132.62 225.31 L 132.75 225.29 L 132.64 225.13 L 132.44 224.80 L 132.73 224.91 L 132.86 224.90 L 133.13 224.90 L 132.95 225.26 L 133.24 225.25 L 133.20 225.22 L 133.55 224.89 L 133.76 224.89 L 133.48 225.27 L 132.69 225.81 L 132.56 226.38 L 132.36 226.47 L 132.28 226.42 L 131.70 226.60 L 131.45 227.17 L 131.22 227.21 L 131.23 227.41 L 131.67 227.20 L 132.08 227.48 L 131.89 227.59 L 131.58 227.73 L 130.36 227.89 L 129.86 227.91 L 129.84 228.49 L 129.78 228.77 L 129.09 229.11 L 128.46 229.02 L 128.35 229.01 L 127.86 229.35 L 127.26 229.84 L 126.82 230.49 L 126.37 230.50 L 125.94 230.62 L 125.04 230.56 L 124.92 230.44 L 124.43 229.53 L 124.33 229.40 L 124.44 228.93 L 124.72 228.97 L 124.80 229.30 L 125.20 229.51 L 125.18 229.68 L 125.38 229.68 L 125.38 229.31 L 125.24 229.23 L 125.08 229.03 L 124.70 228.86 L 124.65 228.92 L 124.31 228.59 L 124.00 228.68 L 123.64 228.88 L 123.63 228.67 L 123.88 228.14 L 124.55 227.85 L 124.26 228.33 L 124.52 228.52 L 124.47 228.39 L 125.21 227.91 L 125.34 227.80 L 125.60 228.48 L 125.88 228.28 L 125.75 228.13 L 125.77 228.00 L 125.84 227.90 L 126.11 227.98 L 126.01 227.74 L 125.72 227.89 L 125.59 227.75 L 125.59 227.68 L 126.03 227.45 L 125.81 227.23 L 125.46 226.99 L 125.45 227.22 L 125.30 227.59 L 125.25 227.48 L 124.92 227.57 L 124.86 227.24 L 124.57 227.12 L 124.39 227.15 L 124.38 227.25 L 124.36 227.46 L 124.54 227.61 L 123.99 227.55 L 123.85 227.71 L 123.63 227.56 L 123.40 227.69 L 123.14 227.77 L 123.16 227.93 L 122.69 227.91 L 122.59 227.86 L 122.21 228.12 L 122.32 228.41 L 122.55 228.84 L 122.15 228.69 L 122.10 228.48 L 121.88 228.56 L 121.89 228.39 L 121.53 228.17 L 121.36 228.24 L 121.57 228.52 L 121.93 228.88 L 121.93 229.05 L 122.29 229.58 L 121.89 230.13 L 121.94 230.38 L 121.44 230.34 L 121.37 230.87 L 121.63 230.98 L 121.58 231.03 L 121.38 231.29 L 121.19 231.24 L 121.11 231.30 L 121.08 231.06 L 121.10 230.98 L 120.34 230.73 L 120.42 230.61 L 120.38 230.32 L 120.73 229.88 L 120.71 229.36 L 120.76 228.89 L 120.62 228.65 L 120.49 228.57 L 120.16 229.07 L 120.08 229.36 L 119.97 229.55 L 119.87 229.51 L 119.64 229.68 L 119.59 229.88 L 119.30 230.39 L 119.14 230.13 L 119.64 229.50 L 119.66 229.07 L 119.38 229.29 L 119.03 229.05 L 118.90 229.06 L 119.08 229.61 L 119.01 229.67 L 117.81 229.27 L 118.07 229.10 L 118.16 228.79 L 117.81 228.54 L 117.69 228.52 L 117.12 228.62 L 117.12 228.70 L 116.92 228.71 L 116.93 228.82 L 117.16 229.00 L 117.29 228.98 L 117.20 229.77 L 117.63 230.08 L 117.46 230.38 L 117.51 230.98 L 118.02 231.79 L 118.50 231.98 L 118.41 232.39 L 118.36 232.23 L 117.71 232.03 L 117.72 231.66 L 117.30 231.23 L 117.11 231.12 L 117.15 231.04 L 117.03 230.98 L 117.06 230.91 L 116.60 230.85 L 116.82 230.47 L 116.42 230.69 L 116.24 230.49 L 116.08 230.51 L 116.19 230.90 L 115.77 230.79 L 115.89 230.98 L 115.82 231.09 L 116.01 231.22 L 116.27 231.09 L 116.42 231.12 L 116.45 231.13 L 116.60 231.13 L 116.80 231.50 L 117.13 231.89 L 117.02 231.99 L 116.42 231.87 L 115.94 232.05 L 115.58 231.78 L 115.23 232.30 L 115.50 232.13 L 115.72 232.29 L 115.66 232.82 L 116.08 232.40 L 116.42 232.64 L 116.46 232.50 L 116.55 232.54 L 116.67 232.41 L 116.89 232.42 L 117.02 232.63 L 117.25 232.56 L 117.38 232.93 L 117.57 232.92 L 117.64 233.05 L 117.53 233.25 L 117.43 233.17 L 117.25 233.21 L 117.04 233.09 L 116.42 233.25 L 116.42 233.46 L 116.46 233.47 L 116.42 233.62 L 116.42 233.67 L 116.42 233.72 L 116.12 233.70 L 114.96 234.20 L 114.94 233.86 L 115.14 233.64 L 114.85 233.38 L 114.34 233.43 L 114.16 233.09 L 113.43 233.05 L 113.20 233.04 L 113.18 232.77 L 112.96 232.42 L 112.83 231.83 L 112.96 231.86 L 113.14 231.78 L 113.44 231.43 L 113.66 231.57 L 114.12 231.45 L 113.66 231.31 L 113.50 230.98 L 113.51 230.86 L 113.85 230.74 L 113.47 230.64 L 113.01 230.98 L 112.76 231.21 L 112.92 231.44 L 112.75 231.50 L 112.50 231.65 L 112.35 231.57 L 111.97 231.55 L 111.89 231.41 L 111.03 231.50 L 111.03 231.80 L 111.63 231.66 L 111.54 232.01 L 112.07 231.75 L 112.32 232.00 L 112.33 232.44 L 112.35 232.82 L 112.12 233.40 L 112.63 233.57 L 112.84 233.68 L 112.56 233.89 L 112.02 234.21 L 111.68 234.22 L 111.01 234.09 L 110.04 234.22 L 109.80 234.29 L 109.79 234.70 L 109.63 234.77 L 109.43 234.81 L 109.21 234.70 L 108.89 235.02 L 108.85 234.91 L 108.61 234.86 L 108.43 235.10 L 108.31 235.33 L 107.37 235.49 L 106.98 235.83 L 106.75 235.82 L 106.79 235.74 L 106.77 235.35 L 106.40 235.00 L 106.81 234.52 L 107.04 234.77 L 107.16 234.77 L 107.08 234.27 L 106.40 234.47 L 106.28 234.29 L 105.98 234.49 L 105.54 234.52 L 105.65 234.70 L 105.70 234.86 L 105.78 235.19 L 105.17 235.55 L 105.05 235.78 L 104.91 235.92 L 104.83 236.14 L 104.62 236.37 L 104.38 236.42 L 104.25 236.58 L 103.71 237.00 L 103.45 237.19 L 103.45 237.08 L 103.16 236.57 L 103.21 236.45 L 102.99 236.21 L 102.69 236.46 L 102.31 236.62 L 102.18 236.17 L 102.38 235.96 L 102.15 235.71 L 103.16 235.40 L 102.55 235.29 L 102.60 234.99 L 102.33 235.11 L 102.20 235.29 L 101.49 235.56 L 101.10 235.83 L 101.04 236.17 L 100.90 236.35 L 100.41 236.24 L 100.17 236.17 L 99.58 236.49 L 99.70 236.64 L 99.80 236.57 L 99.92 236.60 L 100.21 236.41 L 100.30 236.73 L 100.56 236.64 L 100.45 236.49 L 101.01 236.39 L 101.17 236.71 L 100.56 237.22 L 100.86 237.72 L 100.55 238.00 L 100.22 237.80 L 99.62 237.44 L 99.20 237.73 L 99.31 238.02 L 98.36 238.09 L 98.18 238.10 L 97.81 238.02 L 97.63 238.34 L 97.35 238.47 L 97.02 239.00 L 97.29 239.13 L 97.23 239.34 L 97.20 239.42 L 96.75 239.41 L 96.38 239.66 L 96.54 239.99 L 96.40 240.13 L 96.29 240.29 L 96.24 240.22 L 96.09 240.03 L 95.83 239.65 L 95.38 239.80 L 95.44 240.17 L 95.53 240.35 L 95.54 240.74 L 96.00 240.96 L 96.13 241.09 L 95.65 241.51 L 95.29 241.74 L 95.23 242.23 L 95.42 242.22 L 95.46 242.46 L 95.63 242.85 L 95.82 242.82 L 96.04 242.97 L 96.14 243.00 L 96.31 242.64 L 96.44 242.84 L 96.64 243.12 L 95.85 243.56 L 96.06 244.10 L 96.25 244.06 L 96.52 244.06 L 96.46 244.23 L 96.75 244.54 L 97.29 244.53 L 97.09 244.23 L 97.28 244.01 L 97.71 244.10 L 98.01 243.97 L 98.27 244.05 L 98.49 244.05 L 98.69 244.10 L 98.94 244.33 L 98.66 244.32 L 98.31 244.43 L 98.18 244.76 L 98.06 244.91 L 98.12 245.18 L 98.04 245.25 L 97.67 245.86 L 97.76 245.98 L 97.52 246.17 L 97.24 246.72 L 97.23 247.03 L 97.16 247.09 L 96.90 247.03 L 96.99 246.96 L 96.70 246.88 L 96.85 246.28 L 96.61 246.03 L 96.39 246.26 L 95.99 246.29 L 95.54 246.30 L 95.56 246.66 L 95.47 247.03 L 95.04 247.30 L 94.30 247.52 L 94.65 247.32 L 94.75 247.03 L 94.50 246.99 L 94.60 246.78 L 94.28 246.50 L 94.16 246.08 L 94.19 245.79 L 94.37 245.87 L 94.58 245.86 L 94.87 245.53 L 94.68 245.60 L 94.36 245.51 L 93.56 245.83 L 93.61 246.53 L 93.52 246.85 L 93.04 246.89 L 93.04 246.86 L 92.58 246.25 L 92.69 246.14 L 92.52 245.50 L 92.63 245.32 L 92.94 245.32 L 93.24 245.10 L 94.24 244.56 L 94.10 244.44 L 94.21 244.09 L 94.46 244.11 L 94.52 243.70 L 94.69 243.73 L 95.12 243.63 L 94.76 243.33 L 94.78 243.18 L 94.43 242.96 L 94.19 243.32 L 93.99 243.34 L 93.59 243.77 L 92.92 244.59 L 92.35 244.69 L 91.82 244.89 L 91.95 245.12 L 91.00 245.48 L 90.46 245.73 L 91.20 246.68 L 91.33 247.02 L 91.33 247.03 L 90.62 247.11 L 90.28 247.50 L 90.13 247.53 L 89.81 247.63 L 89.32 247.69 L 88.81 247.91 L 88.72 247.89 L 88.46 248.18 L 88.48 247.96 L 88.19 247.99 L 88.03 247.95 L 88.00 248.13 L 88.07 248.43 L 88.27 248.77 L 88.51 248.69 L 88.85 249.07 L 88.66 249.31 L 89.03 249.24 L 89.58 249.29 L 89.98 249.28 L 90.37 249.10 L 90.81 249.11 L 91.08 249.20 L 91.25 249.19 L 91.50 249.19 L 91.76 249.18 L 91.92 249.07 L 92.04 249.25 L 92.20 249.24 L 92.35 249.25 L 92.53 249.28 L 92.82 249.43 L 92.66 249.58 L 92.35 249.57 L 92.01 249.62 L 92.11 250.34 L 92.07 250.75 L 92.08 251.63 L 92.35 251.73 L 92.39 251.71 L 93.04 251.90 L 93.33 252.17 L 94.04 252.31 L 94.17 252.32 L 94.77 252.63 L 95.36 253.08 L 95.75 253.47 L 95.61 253.51 L 95.45 253.59 L 94.81 253.76 L 93.98 254.29 L 93.67 254.19 L 93.41 254.30 L 92.76 253.81 L 92.35 253.79 L 91.96 253.96 L 92.35 254.06 L 92.48 254.05 L 93.07 254.44 L 92.95 254.64 L 93.18 254.79 L 93.87 254.94 L 94.18 254.69 L 94.75 254.88 L 94.61 255.05 L 94.51 255.28 L 94.27 255.23 L 94.27 255.84 L 94.19 255.99 L 93.37 255.56 L 93.56 255.81 L 93.61 256.43 L 93.90 256.38 L 94.23 256.42 L 94.73 256.50 L 94.76 256.67 L 94.63 256.97 L 94.73 257.95 L 94.54 258.13 L 94.50 258.22 L 94.14 258.17 L 93.99 258.46 L 93.27 258.44 L 93.05 258.79 L 92.95 258.80 L 92.70 258.20 L 92.35 258.01 L 92.19 257.99 L 92.14 258.15 L 91.91 258.21 L 91.65 258.31 L 91.54 258.31 L 91.21 257.79 L 91.23 257.30 L 91.63 257.04 L 91.86 257.11 L 92.35 257.31 L 92.35 257.25 L 92.35 257.22 L 92.54 257.27 L 92.83 257.26 L 92.59 257.09 L 92.90 256.88 L 92.35 256.81 L 92.06 256.80 L 90.52 256.48 L 89.81 255.85 L 89.63 255.73 L 89.43 255.30 L 88.88 255.40 L 89.30 256.91 L 88.96 257.09 L 88.09 258.11 L 87.44 258.02 L 87.07 258.08 L 87.37 258.47 L 87.66 258.75 L 87.98 258.87 L 89.02 258.29 L 89.49 257.85 L 89.93 257.88 L 89.39 258.67 L 89.77 258.53 L 89.96 258.53 L 90.37 258.80 L 90.20 258.92 L 90.23 259.39 L 90.60 259.68 L 90.46 260.09 L 90.88 260.43 L 90.82 260.50 L 90.33 260.55 L 90.12 260.59 L 90.02 260.56 L 89.47 260.44 L 89.69 260.99 L 89.29 261.32 L 89.56 261.63 L 89.20 261.64 L 89.20 261.70 L 89.00 261.76 L 89.14 261.95 L 88.60 261.90 L 88.55 261.61 L 89.01 261.39 L 88.96 261.25 L 87.91 260.71 L 87.87 260.89 L 87.45 260.92 L 86.99 261.14 L 86.16 261.25 L 85.94 261.35 L 86.74 261.73 L 87.02 261.72 L 87.43 261.52 L 87.65 261.73 L 87.26 262.49 L 87.48 262.79 L 87.68 263.08 L 87.53 263.08 L 87.44 263.08 L 87.26 263.29 L 86.81 263.24 L 86.44 263.27 L 86.31 263.49 L 85.89 263.70 L 85.00 263.78 L 84.85 263.08 L 84.72 262.65 L 85.16 262.59 L 84.99 262.50 L 84.42 262.25 L 83.72 262.02 L 83.09 262.02 L 82.77 262.26 L 82.92 262.68 L 83.08 262.67 L 83.45 263.08 L 83.28 263.08 L 83.18 263.38 L 83.11 263.46 L 83.18 263.71 L 82.97 263.81 L 82.82 263.85 L 82.30 263.98 L 81.99 264.09 L 82.11 264.42 L 82.56 264.72 L 83.02 264.95 L 82.83 265.26 L 82.67 265.30 L 82.58 265.32 L 82.09 265.29 L 81.53 265.09 L 81.74 265.43 L 81.81 265.70 L 81.74 266.09 L 81.34 266.16 L 81.24 266.18 L 81.12 266.45 L 80.79 265.71 L 80.65 265.41 L 80.31 265.21 L 79.93 265.11 L 79.89 265.41 L 79.74 265.45 L 79.81 265.81 L 79.55 266.04 L 78.95 265.91 L 77.05 267.67 L 74.91 270.72 L 74.68 271.10 L 73.96 272.31 L 73.24 273.69 L 71.62 277.31 L 70.90 279.12 L 70.69 280.18 L 70.49 280.65 L 70.09 280.93 L 69.90 280.96 L 70.31 281.14 L 69.67 281.98 L 69.46 281.79 L 68.29 281.33 L 68.28 281.33 L 67.00 280.78 L 66.04 280.81 L 65.81 281.14 L 66.13 281.44 L 66.29 282.00 L 65.30 281.96 L 64.09 281.49 L 62.92 280.86 L 62.67 279.12 L 62.52 278.71 L 61.86 279.06 L 61.07 278.73 L 60.59 277.88 L 59.64 277.82 L 59.08 276.53 L 59.06 276.49 L 58.71 276.02 L 58.74 275.57 L 57.99 274.44 L 57.39 274.49 L 56.24 273.77 L 55.57 273.64 L 54.75 272.88 L 54.95 271.84 L 54.66 271.10 L 55.12 269.92 L 54.68 269.39 L 54.44 268.74 L 54.84 268.31 L 54.87 267.60 L 55.21 267.29 L 55.14 268.31 L 55.57 268.76 L 56.24 268.96 L 56.33 268.86 L 56.49 268.70 L 56.72 268.55 L 56.75 267.83 L 57.14 267.66 L 57.48 267.66 L 57.99 268.03 L 58.52 267.99 L 58.70 267.69 L 59.08 266.57 L 58.21 265.61 L 58.00 265.84 L 58.13 266.00 L 58.17 266.79 L 57.79 266.77 L 57.40 266.30 L 57.79 265.50 L 57.17 264.88 L 56.90 264.17 L 57.07 264.11 L 57.17 264.22 L 58.40 264.41 L 58.71 263.82 L 58.31 263.08 L 58.60 262.94 L 59.36 263.08 L 59.78 263.22 L 60.60 263.10 L 61.03 263.61 L 62.07 263.38 L 62.25 263.08 L 62.21 263.00 L 61.80 262.76 L 61.31 263.08 L 61.08 263.08 L 60.66 262.85 L 60.71 262.06 L 61.18 261.66 L 61.90 261.80 L 61.63 261.05 L 62.14 261.18 L 62.94 261.17 L 64.13 261.54 L 65.21 262.31 L 65.56 262.20 L 66.24 260.64 L 66.34 259.82 L 66.16 259.19 L 66.33 258.60 L 66.81 258.43 L 67.33 258.45 L 68.28 259.52 L 68.50 259.64 L 68.80 259.10 L 69.64 258.62 L 69.83 257.89 L 69.09 257.04 L 68.99 256.35 L 68.28 255.60 L 68.11 255.34 L 68.28 255.14 L 68.68 255.23 L 69.07 255.05 L 69.22 254.68 L 68.89 254.43 L 69.00 254.02 L 69.44 253.35 L 70.00 252.97 L 70.38 251.91 L 70.89 251.94 L 71.42 252.25 L 71.65 252.23 L 72.21 251.48 L 72.34 251.86 L 72.50 251.64 L 72.78 251.46 L 72.80 251.96 L 73.67 252.28 L 73.81 251.96 L 73.89 252.00 L 74.69 252.20 L 75.05 252.10 L 75.63 252.15 L 76.13 252.40 L 76.22 252.58 L 76.43 252.50 L 76.53 252.68 L 76.94 252.63 L 77.27 252.92 L 77.91 253.19 L 78.12 253.08 L 78.31 252.90 L 78.53 252.90 L 78.41 252.14 L 78.03 251.17 L 77.48 250.76 L 77.83 249.96 L 77.62 249.18 L 77.61 248.44 L 77.87 248.01 L 77.51 247.41 L 77.93 247.03 L 78.01 247.03 L 78.34 247.17 L 79.64 247.45 L 79.96 247.45 L 79.42 247.03 L 78.50 246.17 L 78.53 245.94 L 78.93 245.47 L 78.72 245.29 L 78.62 244.89 L 78.62 244.38 L 78.53 244.27 L 78.12 243.93 L 78.45 243.58 L 78.99 243.16 L 78.58 242.18 L 78.38 241.82 L 78.73 241.53 L 78.74 240.89 L 78.90 240.55 L 79.02 240.55 L 79.57 240.02 L 79.34 239.56 L 79.35 239.24 L 78.96 239.00 L 78.65 238.72 L 78.79 238.49 L 79.04 237.61 L 78.24 237.43 L 77.50 237.07 L 77.55 236.53 L 77.77 236.33 L 77.91 235.92 L 78.69 235.52 L 78.96 235.09 L 79.38 235.10 L 79.56 235.08 L 79.80 234.92 L 79.90 234.54 L 79.84 233.89 L 79.20 233.81 L 79.20 233.29 L 79.46 233.32 L 79.76 233.11 L 80.31 232.38 L 81.00 231.99 L 81.10 231.48 L 81.21 231.13 L 81.09 230.98 L 80.88 230.76 L 80.31 230.38 L 79.98 230.30 L 79.96 230.02 L 80.23 229.71 L 80.04 229.38 L 79.48 228.62 L 79.18 228.33 L 78.07 227.58 L 77.70 226.38 L 78.17 225.97 L 78.72 225.99 L 79.33 225.92 L 80.03 225.47 L 80.31 225.49 L 81.02 224.94 L 80.31 224.02 L 80.26 223.97 L 79.94 223.96 L 79.28 223.75 L 78.38 222.96 L 78.38 222.53 L 77.99 222.09 L 77.97 221.57 L 77.75 220.74 L 77.29 220.46 L 77.37 219.94 L 77.06 219.27 L 76.88 218.94 L 76.15 218.25 L 75.35 218.00 L 75.20 217.47 L 75.60 217.15 L 75.82 216.54 L 76.31 215.91 L 76.53 215.92 L 77.09 215.49 L 77.25 214.93 L 77.27 214.86 L 77.11 214.13 L 77.81 213.46 L 78.02 213.42 L 78.33 213.43 L 78.60 213.41 L 78.92 213.41 L 79.25 213.42 L 79.80 212.87 L 80.31 212.69 L 80.56 212.69 L 80.90 212.52 L 81.23 212.58 L 81.42 212.57 L 82.35 212.85 L 82.60 212.84 L 82.92 212.85 L 83.20 212.71 L 83.77 212.20 L 84.54 212.22 L 85.68 212.48 L 86.69 212.00 L 88.41 212.17 L 88.58 211.25 L 88.74 210.51 L 89.06 210.02 L 89.30 209.33 L 89.58 208.76 L 90.48 208.31 L 90.63 207.79 L 89.79 207.56 L 89.42 207.34 L 89.26 206.91 L 89.45 206.41 L 89.69 205.98 L 89.38 205.02 L 89.41 204.51 L 88.96 204.44 L 87.58 204.86 L 86.87 204.93 L 86.12 205.57 L 85.73 205.55 L 84.67 205.29 L 84.79 204.68 L 85.10 203.93 L 84.78 203.42 L 84.00 202.76 L 84.13 202.57 L 84.01 202.45 L 83.77 202.02 L 83.61 201.88 L 83.57 201.56 L 83.20 201.52 L 83.13 201.87 L 82.83 201.86 L 82.05 201.52 L 81.90 201.37 L 81.67 201.62 L 80.49 202.49 L 80.31 202.58 L 80.00 202.68 L 79.58 202.79 L 79.23 201.83 L 78.87 201.79 L 78.78 201.72 L 78.43 201.81 L 78.34 201.77 L 78.23 201.79 L 77.86 201.69 L 77.52 201.74 L 77.16 201.57 L 76.68 201.51 L 76.55 201.40 L 76.20 201.13 L 75.66 200.80 L 74.96 200.74 L 74.46 200.57 L 74.39 200.21 L 74.16 199.80 L 73.68 199.68 L 73.51 199.46 L 73.35 199.51 L 73.19 199.19 L 73.11 198.89 L 73.18 198.83 L 73.37 198.83 L 73.54 198.37 L 73.41 198.16 L 73.04 197.57 L 73.56 196.86 L 74.42 196.04 L 74.56 195.70 L 75.07 195.50 L 75.24 195.16 L 75.36 194.79 L 75.52 194.42 L 75.56 194.06 L 75.33 193.67 L 74.81 192.65 L 74.68 192.71 L 74.21 192.54 L 73.58 192.57 L 72.45 191.81 L 72.46 191.49 L 72.75 191.70 L 74.70 192.57 L 75.27 192.16 L 75.97 191.91 L 76.05 191.61 L 76.49 191.23 L 76.46 190.86 L 76.82 190.25 L 76.59 190.01 L 76.51 189.89 L 76.36 189.63 L 75.78 188.19 L 75.49 188.15 L 74.36 187.99 L 74.15 187.77 L 73.84 187.68 L 73.72 187.47 L 74.67 187.14 L 75.32 186.64 L 75.14 186.28 L 75.07 186.15 L 75.11 185.77 L 74.73 185.44 L 74.58 185.19 L 73.90 184.26 L 73.56 184.10 L 73.18 183.85 L 72.49 183.29 L 72.23 182.84 L 72.22 182.54 L 71.59 182.59 L 71.33 182.45 L 71.43 182.12 L 71.43 181.78 L 71.66 181.16 L 71.81 180.37 L 71.43 180.24 L 70.97 180.12 L 70.62 179.83 L 70.54 179.37 L 70.68 179.15 L 70.70 179.12 L 71.12 179.22 L 71.68 178.93 L 72.14 178.93 L 72.65 178.45 L 73.02 178.24 L 73.20 178.28 L 73.54 178.42 L 74.05 177.99 L 74.51 178.35 L 74.63 178.31 L 74.69 178.18 L 75.46 177.91 L 75.83 177.56 L 76.07 177.56 L 76.46 177.54 L 77.07 177.24 L 77.28 176.99 L 77.63 176.51 L 77.46 176.31 L 77.02 175.54 L 77.17 175.23 L 76.85 174.81 L 76.84 174.72 L 77.24 174.81 L 77.34 174.81 L 77.63 174.50 L 78.09 174.58 L 78.35 174.43 L 78.51 174.43 L 78.75 174.18 L 78.92 173.33 L 79.41 172.95 L 79.75 172.98 L 80.31 172.55 L 80.77 172.38 L 80.43 172.00 L 80.69 171.60 L 80.31 171.32 L 80.06 171.48 L 79.79 171.42 L 79.57 171.57 L 79.04 171.61 L 78.30 171.56 L 77.74 171.26 L 76.99 170.97 L 76.79 170.85 L 77.12 170.45 L 76.84 170.08 L 76.96 169.62 L 77.47 169.84 L 77.79 169.78 L 78.20 169.43 L 78.70 168.79 L 79.23 168.52 L 79.56 168.75 L 79.62 169.15 L 79.81 169.45 L 80.01 169.45 L 80.31 169.86 L 80.42 169.79 L 81.18 170.33 L 81.35 170.27 L 81.75 169.83 L 82.75 170.40 L 83.21 170.31 L 83.75 170.17 L 83.90 170.07 L 84.50 169.88 L 84.65 169.88 L 85.86 170.01 L 85.86 170.27 L 85.81 170.56 L 86.08 170.81 L 86.30 170.80 L 86.44 170.80 L 86.57 170.79 L 86.85 171.16 L 87.04 171.35 L 87.17 171.34 L 87.51 171.49 L 88.10 171.76 L 88.34 171.72 L 89.13 172.02 L 89.59 172.01 L 89.74 172.23 L 89.87 172.23 L 90.29 172.40 L 90.37 172.44 L 90.61 172.42 L 90.91 172.43 L 91.16 172.43 L 91.39 172.57 L 92.00 172.68 L 92.16 172.65 L 92.35 172.67 L 92.69 172.77 L 94.23 172.18 L 94.45 171.87 L 94.79 171.67 L 95.26 171.19 L 95.88 171.57 L 96.14 171.57 L 96.60 171.55 L 97.50 171.01 L 97.78 171.12 L 98.64 170.60 L 98.71 170.03 L 99.44 169.69 L 99.86 169.78 L 100.24 169.61 L 101.25 169.15 L 101.85 169.16 L 102.25 168.85 L 102.97 168.65 L 103.41 168.22 L 103.79 168.23 L 103.67 167.71 L 103.92 167.35 L 103.91 166.79 L 103.88 166.74 L 104.38 166.43 L 104.68 166.36 L 104.38 166.07 L 104.38 166.03 L 104.38 165.82 L 104.38 165.39 L 104.67 165.01 L 104.50 164.68 L 105.77 163.66 L 106.14 163.74 L 106.64 163.72 L 107.05 162.72 L 107.18 162.51 L 107.37 162.15 L 108.48 161.04 L 108.52 160.55 L 108.58 159.94 L 108.35 159.52 L 109.11 159.11 L 109.10 159.07 L 108.97 158.77 L 108.78 158.19 L 108.82 157.33 L 108.77 157.28 L 109.01 157.09 L 109.30 156.56 L 109.42 156.28 L 108.90 156.19 L 108.71 155.01 L 108.85 154.41 L 109.07 154.20 L 109.44 153.63 L 109.78 153.64 L 110.33 153.27 L 110.78 152.80 L 110.92 152.83 L 111.07 152.80 L 110.82 151.73 L 110.53 151.11 L 111.13 150.74 L 111.13 150.73 L 110.86 150.34 L 110.86 149.93 L 111.09 149.38 L 111.08 148.59 L 111.06 148.30 L 111.02 147.81 L 111.70 147.18 L 110.57 146.54 L 110.70 146.04 L 111.13 145.72 L 111.30 145.30 L 111.45 144.68 L 111.82 144.68 L 112.28 144.44 L 112.22 143.84 L 112.33 143.51 L 112.12 143.12 L 111.49 143.10 L 111.44 142.72 L 111.37 142.60 L 111.03 142.56 L 110.62 142.27 L 109.48 141.38 L 109.25 141.41 L 108.89 141.41 L 107.90 141.05 L 108.08 140.86 L 108.29 140.25 L 108.71 139.55 L 108.61 139.12 L 108.53 138.12 L 108.73 137.86 L 109.70 137.20 L 110.15 137.01 L 110.23 137.47 L 110.55 137.95 L 111.15 138.17 L 112.00 137.33 L 112.34 136.99 L 113.07 136.34 L 113.48 136.19 L 113.86 136.65 L 114.21 136.21 L 114.81 136.45 L 115.05 136.07 L 115.07 135.99 L 115.73 136.36 L 116.27 136.16 L 116.42 136.16 L 116.96 136.47 L 117.48 136.33 L 117.81 135.90 L 118.06 135.20 L 118.21 134.69 L 118.55 134.59 L 119.38 134.28 Z M 132.68 161.69 L 132.41 161.63 L 131.70 161.47 L 131.61 161.44 L 131.54 161.41 L 131.20 161.26 L 131.44 159.86 L 131.55 159.81 L 132.41 159.20 L 132.51 159.13 L 132.65 159.07 L 133.22 158.85 L 133.55 158.85 L 133.61 158.88 L 133.50 159.07 L 133.32 159.40 L 132.77 159.20 L 132.47 159.41 L 132.31 159.62 L 132.26 159.71 L 132.57 159.82 L 133.04 160.00 L 133.76 160.28 L 133.84 160.32 L 133.73 160.52 L 133.60 160.48 L 133.31 160.75 L 132.68 161.69 Z M 163.17 203.30 L 163.06 203.21 L 162.76 202.87 L 162.58 202.70 L 162.97 202.34 L 163.56 202.38 L 163.56 202.81 L 163.17 203.30 Z M 156.29 203.33 L 155.94 203.13 L 156.68 202.99 L 156.67 203.09 L 156.49 203.32 L 156.29 203.33 Z M 151.26 206.64 L 150.49 206.51 L 150.11 206.50 L 150.15 206.25 L 150.52 206.03 L 150.62 205.72 L 150.90 205.72 L 151.04 205.53 L 151.23 205.53 L 151.66 205.41 L 152.04 205.54 L 152.53 205.34 L 152.53 205.13 L 152.33 205.16 L 152.53 204.89 L 152.56 204.84 L 152.85 204.87 L 153.20 204.69 L 152.98 204.69 L 152.53 204.53 L 152.50 204.51 L 152.46 204.65 L 152.01 204.66 L 152.04 204.53 L 152.53 204.39 L 153.26 204.25 L 153.39 204.36 L 153.62 204.35 L 153.71 204.25 L 154.34 203.86 L 154.60 203.73 L 154.95 203.51 L 155.22 203.58 L 155.14 203.89 L 155.40 204.02 L 155.52 204.27 L 155.47 204.56 L 155.36 204.77 L 155.65 205.27 L 155.21 205.43 L 155.15 205.34 L 155.13 205.06 L 154.95 204.96 L 154.60 205.02 L 153.88 205.70 L 153.11 205.80 L 152.86 206.35 L 152.53 206.11 L 152.44 206.24 L 152.29 206.23 L 152.04 206.20 L 151.93 206.58 L 151.83 206.54 L 151.26 206.64 Z M 150.69 205.35 L 150.78 205.28 L 151.07 205.06 L 151.63 205.27 L 151.11 205.23 L 150.69 205.35 Z M 149.50 205.71 L 149.01 205.58 L 149.92 205.30 L 150.13 205.29 L 149.50 205.71 Z M 149.08 207.01 L 149.02 206.91 L 149.00 206.54 L 149.23 206.56 L 149.08 206.91 L 149.08 207.01 Z M 153.92 209.47 L 153.66 209.28 L 153.73 209.01 L 153.33 209.08 L 153.36 208.82 L 153.21 208.84 L 152.95 208.69 L 152.85 208.81 L 152.53 208.62 L 152.53 208.51 L 152.90 207.98 L 153.37 207.72 L 155.11 207.34 L 155.53 206.93 L 155.66 206.93 L 156.05 206.93 L 156.06 207.35 L 155.84 208.23 L 155.71 208.23 L 155.35 208.21 L 155.03 208.51 L 154.48 208.88 L 154.14 209.04 L 154.10 209.41 L 153.92 209.47 Z M 151.05 208.90 L 150.52 208.42 L 151.23 208.10 L 151.71 208.26 L 151.83 208.26 L 151.75 208.55 L 151.05 208.90 Z M 154.78 211.47 L 154.50 211.45 L 154.49 211.29 L 154.92 210.98 L 154.99 211.09 L 155.01 211.16 L 154.96 211.23 L 154.83 211.40 L 154.78 211.47 Z M 154.17 211.97 L 154.11 211.79 L 154.14 211.73 L 154.32 211.74 L 154.17 211.97 Z M 152.65 220.97 L 152.53 220.77 L 152.53 220.72 L 152.53 220.66 L 152.43 220.67 L 152.39 220.52 L 152.32 220.55 L 152.02 220.33 L 152.12 220.12 L 152.25 220.15 L 152.34 220.00 L 152.53 220.39 L 152.63 220.15 L 152.69 220.00 L 152.75 219.95 L 152.89 219.95 L 153.06 220.34 L 152.65 220.97 Z M 137.32 223.21 L 137.35 222.96 L 137.39 222.96 L 137.44 223.01 L 137.54 222.96 L 137.42 222.93 L 137.72 222.53 L 137.77 222.96 L 137.71 223.05 L 137.32 223.21 Z M 147.06 226.03 L 146.91 226.00 L 146.77 225.92 L 146.73 225.86 L 146.69 225.72 L 146.73 225.65 L 147.15 225.48 L 147.57 225.38 L 147.99 225.58 L 148.01 225.83 L 147.97 225.90 L 147.84 225.93 L 147.61 226.01 L 147.42 225.85 L 147.06 226.03 Z M 147.49 226.55 L 147.35 226.32 L 147.37 226.24 L 147.65 226.54 L 147.49 226.55 Z M 146.84 226.56 L 146.80 226.42 L 146.94 226.41 L 147.22 226.35 L 146.84 226.56 Z M 134.08 226.95 L 134.08 226.62 L 134.24 226.46 L 134.37 226.72 L 134.08 226.95 Z M 147.87 226.86 L 147.57 226.75 L 148.02 226.51 L 147.97 226.67 L 148.09 226.75 L 148.01 226.84 L 147.87 226.86 Z M 147.11 226.90 L 147.14 226.80 L 147.24 226.81 L 147.26 226.88 L 147.11 226.90 Z M 147.74 227.62 L 147.91 227.21 L 147.60 227.08 L 147.48 227.10 L 147.65 226.98 L 147.78 227.03 L 147.79 226.96 L 147.98 227.08 L 148.10 227.08 L 148.09 227.25 L 148.00 227.36 L 148.21 227.39 L 148.23 227.32 L 148.38 227.44 L 148.45 227.38 L 148.52 227.44 L 148.62 227.35 L 148.66 227.53 L 148.44 227.53 L 148.14 227.53 L 147.98 227.53 L 148.05 227.47 L 147.91 227.46 L 147.74 227.62 Z M 146.76 227.73 L 146.38 227.58 L 146.85 227.37 L 146.85 227.25 L 147.09 227.35 L 147.06 227.27 L 147.15 227.30 L 147.30 227.20 L 147.40 227.24 L 147.61 227.27 L 147.75 227.39 L 147.50 227.47 L 147.58 227.53 L 147.46 227.61 L 147.33 227.61 L 147.27 227.48 L 147.07 227.62 L 147.04 227.55 L 146.76 227.73 Z M 148.06 227.94 L 147.93 227.93 L 147.90 227.79 L 148.16 227.84 L 148.06 227.94 Z M 149.51 229.64 L 149.23 229.64 L 149.28 229.59 L 149.23 229.44 L 149.29 229.46 L 149.51 229.64 Z M 121.37 232.04 L 121.25 231.80 L 121.30 231.53 L 121.53 231.35 L 121.69 231.52 L 121.86 231.51 L 121.92 231.60 L 122.02 231.80 L 122.04 231.93 L 121.76 231.92 L 121.63 231.99 L 121.37 232.04 Z M 105.09 236.74 L 104.79 236.53 L 104.94 236.47 L 105.09 236.74 Z M 107.37 236.91 L 107.31 236.91 L 107.30 236.84 L 107.32 236.78 L 107.35 236.76 L 107.46 236.79 L 107.46 236.84 L 107.37 236.91 Z M 107.02 237.05 L 106.99 237.05 L 106.93 237.02 L 106.99 237.00 L 107.04 237.00 L 107.05 237.02 L 107.04 237.05 L 107.02 237.05 Z M 105.26 237.70 L 105.03 237.70 L 105.10 237.62 L 105.26 237.63 L 105.32 237.62 L 105.26 237.70 Z M 99.88 239.53 L 99.44 239.42 L 99.32 239.00 L 99.12 238.54 L 99.34 238.54 L 99.49 238.65 L 99.30 238.77 L 99.52 239.00 L 99.42 239.18 L 99.88 239.53 Z M 97.91 239.02 L 97.82 239.00 L 97.80 238.91 L 97.93 239.00 L 97.91 239.02 Z M 97.57 240.28 L 97.45 240.12 L 97.43 239.81 L 97.73 239.63 L 97.86 239.63 L 97.82 239.81 L 98.06 239.94 L 97.57 240.28 Z M 103.81 241.08 L 103.64 241.07 L 103.43 240.80 L 103.56 240.69 L 103.83 240.78 L 103.81 241.08 Z M 93.20 248.70 L 93.01 248.61 L 92.82 248.38 L 93.16 248.52 L 93.20 248.70 Z M 93.78 249.81 L 93.25 249.58 L 93.46 249.50 L 93.89 249.58 L 93.78 249.81 Z"/>
<text x="168.9" y="85.9">岐阜</text>
<text x="177.3" y="165.3">愛知</text>
<text x="119.2" y="218.7">三重</text>
</svg>
